<svg width="772" height="481" viewBox="0 0 772 481" fill="none" xmlns="http://www.w3.org/2000/svg">
<path d="M157.998 465.621L169.415 471.91C170.036 472.264 170.525 472.81 170.809 473.466C171.092 474.122 171.155 474.853 170.987 475.547C170.694 476.721 169.72 477.566 167.174 477.612C161.53 477.73 136.549 473.564 136.549 473.564V476.779H124.874C124.874 476.779 124.146 460.211 127.678 458.005L157.998 465.621Z" fill="#262722"/>
<path d="M142.662 455.365L157.916 465.621C157.916 465.621 155.945 471.265 147.227 467.498C138.509 463.732 127.596 458.111 127.596 458.111L129.192 453.817L142.662 455.365Z" fill="#E8AF94"/>
<path d="M129.274 453.769L127.679 406.213L142.839 407.21V460.293L129.274 453.769Z" fill="#E8AF94"/>
<path d="M28.1417 465.62L16.7248 471.91C16.1039 472.264 15.6148 472.81 15.3312 473.466C15.0476 474.122 14.9849 474.852 15.1525 475.547C15.4458 476.721 16.4197 477.565 18.9659 477.612C24.6098 477.73 49.5909 473.564 49.5909 473.564V476.92L61.1016 476.779C61.1016 476.779 61.9934 460.246 58.4615 458.076L28.1417 465.62Z" fill="#262722"/>
<path d="M43.4306 455.365L28.1768 465.621C28.1768 465.621 30.148 471.265 38.8662 467.498C47.5843 463.732 58.4966 458.111 58.4966 458.111L56.9009 453.817L43.4306 455.365Z" fill="#E8AF94"/>
<path d="M56.8656 453.769L68.834 406.213L53.6741 407.21L41.9756 461.385L56.8656 453.769Z" fill="#E8AF94"/>
<path d="M134.578 191.017C134.578 191.017 155.276 220.68 154.725 253.1C154.173 285.52 147.356 439.361 147.356 439.361H122.715L114.948 238.351L111.697 238.151L67.1797 439.443L44.1816 437.002L70.911 254.977C72.7131 243.296 75.9079 231.872 80.427 220.95C84.3226 211.563 89.6615 201.002 96.3262 192.789L134.578 191.017Z" fill="#E180A0"/>
<path d="M104.352 239.864L120.11 237.118" stroke="black" stroke-width="0.91" stroke-linecap="round" stroke-linejoin="round"/>
<path d="M91.8554 210.53L84.252 232.402" stroke="#D4688F" stroke-width="0.95" stroke-linecap="round" stroke-linejoin="round"/>
<path d="M80.3098 66.2171C80.3098 66.2171 78.585 83.4891 58.9897 97.3818C38.092 112.201 53.6626 153.211 92.0318 151.357C133.71 149.28 151.005 95.7391 123.807 55.0701L80.3098 66.2171Z" fill="#A74B22"/>
<path d="M109.538 117.165L84.2758 124.205C76.9539 126.294 71.0871 134.038 73.3517 141.29L96.0916 192.754L134.578 191.005L148.107 135.247C149.28 127.667 141.407 120.791 133.792 119.922L109.538 117.165Z" fill="#7B97FB"/>
<path d="M84.2759 124.264L109.539 117.224L133.804 119.993L133.299 120.415C126.547 126.079 118.198 129.5 109.413 130.202C100.628 130.904 91.8423 128.853 84.2759 124.334V124.264Z" fill="#E0A78F"/>
<path d="M166.259 186.136L137.5 211.645L142.533 220.328L175.74 200.087C178.376 198.451 180.36 195.948 181.351 193.008C182.343 190.068 182.279 186.875 181.172 183.977C181.055 183.687 180.926 183.398 180.785 183.108L176.936 175.094L166.259 186.136Z" fill="#E0A78F"/>
<path d="M157.389 135.681L181.314 176.608C181.59 177.302 181.721 178.045 181.7 178.791C181.678 179.538 181.505 180.272 181.189 180.949C180.874 181.625 180.424 182.231 179.866 182.727C179.308 183.224 178.655 183.601 177.946 183.836L166.412 187.661C165.552 187.949 164.628 187.985 163.748 187.764C162.869 187.544 162.071 187.077 161.448 186.417C157.201 181.9 138.556 167.643 139.154 150.301L132.525 138.427L133.804 119.934C146.183 121.413 155.089 130.037 157.389 135.681Z" fill="#7B97FB"/>
<path d="M141.759 162.539L147.098 144.95" stroke="black" stroke-width="0.87" stroke-linecap="round" stroke-linejoin="round"/>
<path d="M147.098 212.889C146.464 213.452 142.709 230.161 142.709 230.161L137.488 211.645L147.098 212.889Z" fill="#E0A78F"/>
<path d="M136.843 209.498L143.378 232.507" stroke="#D4688F" stroke-width="0.95" stroke-linecap="round" stroke-linejoin="round"/>
<path d="M64.7505 140.996L45.6715 184.411C45.4767 185.131 45.431 185.883 45.5373 186.622C45.6436 187.36 45.8996 188.069 46.2896 188.706C46.6796 189.342 47.1954 189.891 47.8054 190.321C48.4154 190.751 49.1067 191.051 49.837 191.204L58.825 193.176C60.6437 193.551 61.7584 197.869 62.8731 196.379C66.5692 191.404 87.1149 170.565 84.5335 153.387L89.755 140.832L84.2637 124.217C72.1662 127.162 66.3932 135.129 64.7505 140.996Z" fill="#7B97FB"/>
<path d="M83.3604 165.895L76.0269 149.034" stroke="black" stroke-width="0.87" stroke-linecap="round" stroke-linejoin="round"/>
<path d="M20.4328 137.816L11.4683 141.547L47.6198 193.176C48.2899 194.516 49.2528 195.688 50.4373 196.605C51.6218 197.522 52.9975 198.161 54.4625 198.474C55.9274 198.787 57.4441 198.767 58.9001 198.414C60.3561 198.062 61.7141 197.386 62.8736 196.438C64.8559 194.805 66.1327 192.47 66.4387 189.92C66.7446 187.37 66.0561 184.8 64.5163 182.744L20.4328 137.816Z" fill="#E0A78F"/>
<path d="M20.8433 140.374L22.6621 137.664C23.9755 135.7 24.5493 133.334 24.2813 130.987L23.4717 124.358C23.4717 124.358 23.108 120.838 16.4315 123.184C9.755 125.531 9.39126 125.649 9.93101 127.655C9.93101 127.655 11.7849 130.19 16.3024 129.814L20.8433 140.374Z" fill="#E0A78F"/>
<path d="M12.4188 143.284C12.4188 143.284 4.88575 141.008 2.02272 129.298C1.85997 128.632 1.86936 127.936 2.05001 127.275C2.23066 126.614 2.57662 126.01 3.05529 125.519C4.5572 123.994 8.92214 120.016 12.055 121.284L18.0979 126.352L20.8201 140.433L12.4188 143.284Z" fill="#E0A78F"/>
<path d="M18.661 124.088L18.2856 104.305C18.2763 103.738 18.0448 103.198 17.6409 102.801C17.237 102.403 16.6931 102.181 16.1266 102.181C15.562 102.184 15.0211 102.408 14.6198 102.805C14.2184 103.202 13.9885 103.74 13.9793 104.305L13.7681 119.371L12.2427 120.016L3.61844 106.698C3.47436 106.477 3.28689 106.286 3.0673 106.139C2.8477 105.991 2.60055 105.89 2.34072 105.841C2.08088 105.791 1.81375 105.795 1.55542 105.852C1.29708 105.908 1.05289 106.017 0.837551 106.17C0.445638 106.444 0.167294 106.852 0.0549176 107.316C-0.0574587 107.781 0.00388596 108.271 0.2274 108.693L9.9781 127.631L18.661 124.088Z" fill="#E0A78F"/>
<path d="M18.6255 122.527C18.6255 122.527 9.23849 123.7 9.96598 127.608C9.96598 127.608 10.4001 130.6 16.3374 129.767C15.3399 130.349 14.5466 131.225 14.0657 132.275C13.5847 133.325 13.4397 134.498 13.6504 135.634" stroke="#B9635E" stroke-width="0.64" stroke-linecap="round" stroke-linejoin="round"/>
<path d="M86.9458 93.1326C90.7514 92.7023 93.4878 89.2685 93.0575 85.4628C92.6273 81.6572 89.1934 78.9209 85.3878 79.3511C81.5821 79.7814 78.8458 83.2152 79.2761 87.0209C79.7063 90.8265 83.1402 93.5628 86.9458 93.1326Z" fill="#E0A78F"/>
<path d="M82.1519 85.6012C82.1519 85.6012 84.7919 84.0289 87.8075 88.5815" stroke="#B9635E" stroke-width="0.66" stroke-linecap="round" stroke-linejoin="round"/>
<path d="M125.831 89.8539C129.647 89.5314 132.479 86.1763 132.157 82.36C131.834 78.5437 128.479 75.7114 124.663 76.0339C120.847 76.3564 118.014 79.7115 118.337 83.5278C118.659 87.3441 122.014 90.1764 125.831 89.8539Z" fill="#E0A78F"/>
<path d="M129.052 81.5296C129.052 81.5296 126.154 80.5088 124.088 85.566" stroke="#B9635E" stroke-width="0.66" stroke-linecap="round" stroke-linejoin="round"/>
<path d="M105.974 89.9789C119.115 88.8686 128.928 78.0277 127.891 65.7652C126.855 53.5028 115.363 44.4622 102.222 45.5726C89.0813 46.683 79.2687 57.5238 80.3049 69.7863C81.341 82.0488 92.8336 91.0893 105.974 89.9789Z" fill="#A74B22"/>
<path d="M113.539 97.8394C112.012 99.4965 110.164 100.826 108.107 101.747C105.431 102.65 102.603 100.808 102.568 100.785L99.1772 98.6607L99.8226 121.53L100.21 121.882C105.267 126.47 111.944 125.977 116.203 120.708L116.825 119.934L113.539 97.8394Z" fill="#E0A78F"/>
<path d="M96.772 95.7862C96.772 95.7862 101.735 108.764 108.564 108.06C114.185 107.473 114.701 94.9414 114.701 94.9414L96.772 95.7862Z" fill="#1E0B02"/>
<path d="M123.278 70.0894C123.825 76.3088 123.636 82.5709 122.715 88.746C122.023 93.3221 119.195 96.7366 115.123 99.6466L114.372 100.175C112.191 101.696 109.659 102.639 107.013 102.914C104.368 103.189 101.696 102.788 99.2477 101.747C94.3196 99.5762 90.7173 96.4433 89.2741 91.7263C87.5397 85.7584 86.288 79.6607 85.531 73.4922C85.531 73.4922 82.2456 53.3924 102.639 51.9374C123.032 50.4824 123.278 70.0894 123.278 70.0894Z" fill="#E0A78F"/>
<path d="M103.636 82.1632L103.883 85.0849L105.877 84.9206" stroke="#B9635E" stroke-width="0.66" stroke-linecap="round" stroke-linejoin="round"/>
<path d="M88.9106 72.8234L99.6 70.946C99.6 70.946 98.4267 68.2355 94.0852 69.0569C89.7437 69.8782 88.9106 72.8234 88.9106 72.8234Z" fill="black"/>
<path d="M118.515 70.3241L107.661 70.2654C107.661 70.2654 108.389 67.3907 112.777 67.4845C117.165 67.5784 118.515 70.3241 118.515 70.3241Z" fill="black"/>
<path d="M96.3344 80.4473C97.2449 80.3703 97.9206 79.5699 97.8437 78.6594C97.7667 77.7489 96.9663 77.0732 96.0558 77.1501C95.1453 77.2271 94.4696 78.0275 94.5465 78.938C94.6235 79.8485 95.4239 80.5242 96.3344 80.4473Z" fill="#1E0B02"/>
<path d="M112.495 79.0671C113.405 78.9902 114.081 78.1898 114.004 77.2793C113.927 76.3688 113.126 75.6931 112.216 75.77C111.305 75.8469 110.63 76.6474 110.707 77.5579C110.784 78.4684 111.584 79.1441 112.495 79.0671Z" fill="#1E0B02"/>
<path d="M99.248 89.6611C99.248 89.6611 104.035 91.7731 111.205 88.652" stroke="black" stroke-width="0.66" stroke-linecap="round" stroke-linejoin="round"/>
<path d="M122.891 65.4898C122.891 65.4898 93.0056 69.139 92.7944 51.4094C92.7944 51.4563 118.292 41.8112 122.891 65.4898Z" fill="#A74B22"/>
<path d="M84.6863 68.728C84.6863 68.728 94.8477 63.4361 93.9324 52.6411C93.9324 52.6411 83.243 54.8001 84.6863 68.728Z" fill="#A74B22"/>
<path d="M214.872 428.718L212.596 460.024L199.09 460.481L198.187 421.901L214.872 428.718Z" fill="#E8B499"/>
<path d="M213.217 456.468C213.217 456.468 203.83 462.394 198.808 453.288L162.352 472.637L219.143 472.285L213.217 456.468Z" fill="#DA4412"/>
<path d="M219.133 472.293L162.343 472.64L162.374 477.604L219.164 477.257L219.133 472.293Z" fill="white"/>
<path d="M194.491 462.758C194.333 462.694 194.195 462.588 194.092 462.453C192.833 460.779 191.316 459.318 189.598 458.123C189.495 458.06 189.407 457.977 189.338 457.878C189.269 457.78 189.221 457.668 189.197 457.551C189.173 457.433 189.173 457.312 189.198 457.194C189.222 457.077 189.27 456.966 189.339 456.867C189.487 456.669 189.704 456.533 189.947 456.485C190.19 456.437 190.442 456.481 190.654 456.609C192.546 457.922 194.21 459.535 195.582 461.385C195.655 461.48 195.708 461.59 195.737 461.707C195.766 461.824 195.771 461.945 195.751 462.064C195.731 462.183 195.687 462.296 195.622 462.398C195.556 462.499 195.471 462.585 195.371 462.652C195.242 462.736 195.096 462.79 194.943 462.808C194.79 462.826 194.635 462.809 194.491 462.758Z" fill="white"/>
<path d="M189.843 465.081C189.686 465.017 189.548 464.911 189.445 464.776C188.201 463.106 186.7 461.645 184.997 460.446C184.895 460.383 184.807 460.3 184.738 460.201C184.669 460.103 184.621 459.992 184.597 459.874C184.573 459.756 184.573 459.635 184.598 459.518C184.622 459.4 184.67 459.289 184.739 459.19C184.886 458.99 185.102 458.852 185.346 458.804C185.589 458.756 185.842 458.802 186.053 458.932C187.946 460.245 189.61 461.858 190.982 463.708C191.055 463.804 191.108 463.913 191.137 464.03C191.166 464.147 191.171 464.269 191.151 464.387C191.131 464.506 191.087 464.62 191.022 464.721C190.956 464.822 190.871 464.908 190.77 464.975C190.636 465.067 190.482 465.125 190.32 465.143C190.159 465.161 189.995 465.14 189.843 465.081Z" fill="white"/>
<path d="M185.209 467.392C185.051 467.328 184.913 467.223 184.81 467.087C183.566 465.418 182.065 463.957 180.363 462.758C180.26 462.695 180.172 462.611 180.103 462.513C180.035 462.415 179.987 462.303 179.962 462.186C179.938 462.068 179.938 461.947 179.963 461.829C179.987 461.712 180.035 461.6 180.105 461.502C180.251 461.301 180.467 461.163 180.711 461.116C180.955 461.068 181.207 461.114 181.419 461.244C183.311 462.557 184.975 464.17 186.347 466.02C186.42 466.115 186.473 466.225 186.502 466.342C186.531 466.459 186.536 466.58 186.516 466.699C186.496 466.818 186.452 466.931 186.387 467.032C186.321 467.133 186.236 467.22 186.136 467.287C186.001 467.379 185.847 467.436 185.685 467.455C185.524 467.473 185.36 467.452 185.209 467.392Z" fill="white"/>
<path d="M252.032 428.718L254.309 460.024L267.814 460.481L268.718 421.901L252.032 428.718Z" fill="#E8B499"/>
<path d="M253.687 456.468C253.687 456.468 263.074 462.394 268.096 453.288L304.588 472.637L247.797 472.285L253.687 456.468Z" fill="#DA4412"/>
<path d="M247.771 472.292L247.741 477.255L304.531 477.602L304.561 472.639L247.771 472.292Z" fill="white"/>
<path d="M272.414 462.758C272.572 462.694 272.709 462.588 272.813 462.453C274.057 460.783 275.558 459.322 277.26 458.123C277.362 458.06 277.45 457.977 277.519 457.878C277.588 457.78 277.636 457.668 277.66 457.551C277.684 457.433 277.684 457.312 277.66 457.194C277.635 457.077 277.587 456.966 277.518 456.867C277.37 456.669 277.153 456.533 276.911 456.485C276.668 456.437 276.416 456.481 276.204 456.609C274.312 457.922 272.647 459.535 271.276 461.385C271.202 461.48 271.15 461.59 271.121 461.707C271.091 461.824 271.087 461.945 271.106 462.064C271.126 462.183 271.17 462.296 271.236 462.398C271.301 462.499 271.387 462.585 271.487 462.652C271.621 462.744 271.776 462.802 271.937 462.82C272.099 462.838 272.262 462.817 272.414 462.758Z" fill="white"/>
<path d="M277.06 465.081C277.218 465.017 277.356 464.911 277.459 464.776C278.703 463.106 280.204 461.645 281.907 460.446C282.009 460.383 282.097 460.3 282.166 460.201C282.235 460.103 282.283 459.992 282.307 459.874C282.331 459.756 282.331 459.635 282.306 459.518C282.282 459.4 282.234 459.289 282.165 459.19C282.018 458.99 281.802 458.852 281.558 458.804C281.314 458.756 281.062 458.802 280.85 458.932C278.958 460.245 277.294 461.858 275.922 463.708C275.849 463.804 275.796 463.913 275.767 464.03C275.738 464.147 275.733 464.269 275.753 464.387C275.773 464.506 275.817 464.62 275.882 464.721C275.948 464.822 276.033 464.908 276.134 464.975C276.268 465.067 276.422 465.125 276.584 465.143C276.745 465.161 276.909 465.14 277.06 465.081Z" fill="white"/>
<path d="M281.695 467.392C281.853 467.328 281.991 467.223 282.094 467.087C283.338 465.418 284.839 463.957 286.541 462.758C286.643 462.695 286.732 462.611 286.801 462.513C286.869 462.415 286.917 462.303 286.942 462.186C286.966 462.068 286.966 461.947 286.941 461.829C286.917 461.712 286.868 461.6 286.799 461.502C286.653 461.301 286.437 461.163 286.193 461.116C285.949 461.068 285.697 461.114 285.485 461.244C283.593 462.557 281.928 464.17 280.557 466.02C280.484 466.115 280.431 466.225 280.402 466.342C280.373 466.459 280.368 466.58 280.388 466.699C280.408 466.818 280.452 466.931 280.517 467.032C280.583 467.133 280.668 467.22 280.768 467.287C280.902 467.379 281.057 467.436 281.219 467.455C281.38 467.473 281.544 467.452 281.695 467.392Z" fill="white"/>
<path d="M268.635 224.798C268.635 224.798 272.965 252.056 272.836 346.946L275.91 445.192H246.236L241.718 347.943L235.441 261.114H223.707V224.798H268.635Z" fill="#262722"/>
<path d="M199.407 224.798C199.407 224.798 195.077 253.147 195.206 348.002L192.132 445.157H221.806L225.186 347.908L232.601 261.079H244.335V224.798H199.407Z" fill="#262722"/>
<path d="M220.457 261.102H243.209" stroke="#494949" stroke-width="0.95" stroke-linecap="round" stroke-linejoin="round"/>
<path d="M194.784 209.732L181.877 269.492L173.393 269.057C173.393 269.057 176.115 232.085 179.26 207.373C179.764 203.454 184.81 200.251 188.647 201.061C192.355 201.812 195.546 206.083 194.784 209.732Z" fill="#E8B499"/>
<path d="M180.95 265.538C182.212 267.781 183.006 270.258 183.282 272.818C183.558 275.377 183.312 277.966 182.558 280.428L184.47 288.583C184.62 289.188 184.559 289.826 184.296 290.392C184.034 290.957 183.586 291.416 183.027 291.692C182.736 291.819 182.422 291.886 182.104 291.889C181.787 291.891 181.472 291.829 181.179 291.706C180.886 291.583 180.621 291.402 180.4 291.174C180.179 290.945 180.007 290.675 179.894 290.378L177.993 285.778L177.794 287.538C177.467 290.304 178.026 293.101 179.389 295.529L183.238 302.288C183.451 302.678 183.562 303.116 183.562 303.561C183.562 304.005 183.451 304.443 183.238 304.834C183.075 305.184 182.824 305.487 182.509 305.711C182.194 305.935 181.826 306.073 181.442 306.112C181.057 306.151 180.669 306.09 180.315 305.933C179.962 305.777 179.655 305.532 179.425 305.221L173.323 297.066C172.141 295.452 171.296 293.617 170.839 291.67C170.381 289.722 170.32 287.703 170.66 285.731L174.344 263.977L180.95 265.538Z" fill="#E8B499"/>
<path d="M179.318 207.362L186.851 156.285L204.37 161.987L194.607 210.436L179.318 207.362Z" fill="#E8B499"/>
<path d="M205.719 135.082C205.719 135.082 193.892 136.49 187.814 152.167C181.736 167.843 174.238 184.364 174.238 184.364L200.721 199.113L205.719 135.082Z" fill="#4E8985"/>
<path d="M283.901 218.321L341.737 186.828L338.216 174.531C338.216 174.531 297.911 191.697 276.028 203.642C272.508 205.531 271.416 212.548 273.587 215.857C275.652 218.99 280.803 220.351 283.901 218.321Z" fill="#E8B499"/>
<path d="M288.677 207.585L276.709 156.285L259.19 161.987L272.954 214.484L288.677 207.585Z" fill="#E8B499"/>
<path d="M260.082 134.672C260.082 134.672 272.907 136.197 279.384 152.108C285.767 167.761 292.103 182.205 292.103 182.205L266.594 198.01L260.082 134.672Z" fill="#4E8985"/>
<path d="M266.031 137.065C261.49 134.249 254.109 133.545 254.109 133.545L233.599 135.681L213.065 133.557C213.065 133.557 205.684 134.261 201.143 137.077L200.979 184.317L191.815 249.251L275.887 249.709L266.242 185.173L266.031 137.065Z" fill="#4E8985"/>
<path d="M205.72 135.082L229.891 128.734H238.222L260.082 134.683C248.9 145.161 221.161 153.75 206.963 135.575L205.72 135.082Z" fill="#E8B499"/>
<path d="M199.243 198.069L200.709 182.944L198.973 160.228" stroke="black" stroke-width="0.95" stroke-linecap="round" stroke-linejoin="round"/>
<path d="M267.756 196.907L266.406 182.944L268.647 160.016" stroke="black" stroke-width="0.95" stroke-linecap="round" stroke-linejoin="round"/>
<path d="M269.504 113.316C269.271 111.352 269.41 109.362 269.915 107.449C271.032 103.363 271.126 99.064 270.188 94.9325C269.251 90.8009 267.312 86.9636 264.541 83.7589C260 78.338 258.826 70.23 258.826 70.23C255.494 59.2473 244.206 51.6321 233.927 51.6321C223.649 51.6321 212.396 58.8131 209.064 69.7958C209.064 69.7958 207.562 78.4905 203.361 83.8763C198.503 90.0482 195.5 98.0389 197.987 107.567C198.491 109.479 198.631 111.469 198.398 113.433C198.296 114.851 197.818 116.216 197.013 117.388H270.853C270.041 116.179 269.574 114.771 269.504 113.316Z" fill="#DA4412"/>
<path d="M214.141 99.8514C218.131 99.7385 221.274 96.4123 221.161 92.422C221.048 88.4317 217.722 85.2884 213.732 85.4013C209.742 85.5141 206.598 88.8404 206.711 92.8307C206.824 96.821 210.15 99.9642 214.141 99.8514Z" fill="#E8B499"/>
<path d="M209.826 91.6088C209.826 91.6088 212.701 90.2125 215.435 95.1993" stroke="#C47268" stroke-width="0.69" stroke-linecap="round" stroke-linejoin="round"/>
<path d="M254.789 99.8578C258.781 99.8578 262.017 96.6217 262.017 92.6298C262.017 88.6379 258.781 85.4019 254.789 85.4019C250.798 85.4019 247.562 88.6379 247.562 92.6298C247.562 96.6217 250.798 99.8578 254.789 99.8578Z" fill="#E8B499"/>
<path d="M258.826 91.4917C258.826 91.4917 255.916 90.1776 253.312 95.2465" stroke="#C47268" stroke-width="0.69" stroke-linecap="round" stroke-linejoin="round"/>
<path d="M234.162 101.571C246.702 101.571 256.867 91.4057 256.867 78.8662C256.867 66.3267 246.702 56.1615 234.162 56.1615C221.623 56.1615 211.458 66.3267 211.458 78.8662C211.458 91.4057 221.623 101.571 234.162 101.571Z" fill="#DA4412"/>
<path d="M241.343 107.062C239.606 108.627 237.57 109.825 235.358 110.582C232.507 111.286 229.726 109.127 229.691 109.104L226.359 106.604L225.021 130.4L225.396 130.799C230.242 135.997 237.212 136.08 242.105 130.975L242.821 130.224L241.343 107.062Z" fill="#E8B499"/>
<path d="M224.106 103.507C224.106 103.507 228.119 117.411 235.277 117.27C241.144 117.153 242.798 104.199 242.798 104.199L224.106 103.507Z" fill="#1E0B02"/>
<path d="M253.875 79.1126C253.898 85.6354 253.15 92.1381 251.645 98.485C250.472 103.178 247.339 106.476 242.81 109.139L241.988 109.62C239.581 111.006 236.86 111.756 234.082 111.799C231.305 111.842 228.562 111.177 226.113 109.867C221.184 107.18 217.723 103.624 216.644 98.5906C215.383 92.2504 214.634 85.8192 214.402 79.3591C214.402 79.3591 212.76 58.2384 234.045 58.4848C255.33 58.7312 253.875 79.1126 253.875 79.1126Z" fill="#E8B499"/>
<path d="M232.425 90.6937V93.7914H234.514" stroke="#C47268" stroke-width="0.69" stroke-linecap="round" stroke-linejoin="round"/>
<path d="M217.969 78.9364L229.222 77.9273C229.222 77.9273 228.213 75.0056 223.66 75.4867C219.107 75.9678 217.969 78.9364 217.969 78.9364Z" fill="black"/>
<path d="M248.911 78.9366L237.706 77.9157C237.706 77.9157 238.715 74.994 243.267 75.4751C247.82 75.9562 248.911 78.9366 248.911 78.9366Z" fill="black"/>
<path d="M227.321 96.6544H239.618C239.618 96.6544 239.149 99.8577 233.259 99.8577C228.413 99.8577 227.321 96.6544 227.321 96.6544Z" fill="white"/>
<path d="M227.896 86.5281C227.896 86.5281 224.986 84.1814 222.428 86.5281" stroke="#1E0B02" stroke-width="0.96" stroke-linecap="round" stroke-linejoin="round"/>
<path d="M244.347 86.5284C243.636 85.8304 242.679 85.4393 241.683 85.4393C240.687 85.4393 239.73 85.8304 239.02 86.5284" stroke="#1E0B02" stroke-width="0.96" stroke-linecap="round" stroke-linejoin="round"/>
<path opacity="0.23" d="M222.452 78.7489L230.665 89.9194C230.665 89.9194 228.178 94.6715 224.212 94.1435L215.881 83.2194C215.881 83.2194 218.169 78.4438 222.452 78.7489Z" fill="white"/>
<path opacity="0.23" d="M242.739 78.7488L250.953 89.9545C250.953 89.9545 248.465 94.7066 244.499 94.1786L236.168 83.2545C236.168 83.2545 238.457 78.4437 242.739 78.7488Z" fill="white"/>
<path d="M223.285 94.6011C227.743 94.6011 231.357 90.9868 231.357 86.5283C231.357 82.0699 227.743 78.4556 223.285 78.4556C218.826 78.4556 215.212 82.0699 215.212 86.5283C215.212 90.9868 218.826 94.6011 223.285 94.6011Z" stroke="white" stroke-width="0.49" stroke-miterlimit="10"/>
<path d="M243.596 94.6011C248.054 94.6011 251.669 90.9868 251.669 86.5283C251.669 82.0699 248.054 78.4556 243.596 78.4556C239.137 78.4556 235.523 82.0699 235.523 86.5283C235.523 90.9868 239.137 94.6011 243.596 94.6011Z" stroke="white" stroke-width="0.49" stroke-miterlimit="10"/>
<path d="M231.346 86.5281C232.697 86.0522 234.171 86.0522 235.523 86.5281" stroke="white" stroke-width="0.49" stroke-miterlimit="10"/>
<path d="M212.349 74.3018C212.349 74.3018 231.323 70.6878 235.242 56.5252C235.242 56.5252 215.06 49.3677 212.349 74.3018Z" fill="#DA4412"/>
<path d="M253.875 74.3018C253.875 74.3018 234.901 70.6878 230.982 56.5252C230.982 56.5252 251.164 49.3677 253.875 74.3018Z" fill="#DA4412"/>
<path d="M496.504 449.757H475.372L440.394 468.46L500.529 467.744L496.504 449.757Z" fill="#A74B22"/>
<path d="M485.779 472.062C486.751 472.084 487.677 472.485 488.356 473.18C489.036 473.876 489.417 474.81 489.417 475.782L500.74 475.653L500.54 467.744L440.417 468.46L440.628 476.369L482.153 475.864C482.131 474.88 482.501 473.926 483.18 473.214C483.86 472.501 484.795 472.087 485.779 472.062Z" fill="#1E0B02"/>
<path d="M460.751 456.644L467.674 458.533" stroke="#4E8985" stroke-width="1.94" stroke-linecap="round" stroke-linejoin="round"/>
<path d="M467.522 453.171L474.456 455.06" stroke="#4E8985" stroke-width="1.94" stroke-linecap="round" stroke-linejoin="round"/>
<path d="M496.515 419.941H474.96V449.757H496.515V419.941Z" fill="#E6A9A0"/>
<path d="M534.603 449.757H555.747L590.714 468.46L530.59 467.744L534.603 449.757Z" fill="#A74B22"/>
<path d="M545.34 472.062C544.367 472.084 543.442 472.485 542.762 473.18C542.083 473.876 541.702 474.81 541.702 475.782L530.379 475.653L530.59 467.744L590.714 468.46L590.503 476.369L548.977 475.864C548.988 475.376 548.903 474.89 548.726 474.434C548.549 473.979 548.284 473.563 547.946 473.21C547.608 472.857 547.204 472.574 546.757 472.377C546.31 472.18 545.828 472.073 545.34 472.062Z" fill="#1E0B02"/>
<path d="M570.356 456.644L564.512 459.613" stroke="#4E8985" stroke-width="1.94" stroke-linecap="round" stroke-linejoin="round"/>
<path d="M563.586 453.171L558.81 455.06" stroke="#4E8985" stroke-width="1.94" stroke-linecap="round" stroke-linejoin="round"/>
<path d="M553.847 419.941H532.292L534.604 449.757H556.159L553.847 419.941Z" fill="#E6A9A0"/>
<path d="M546.231 195.018C547.851 212.302 560.805 441.156 560.805 441.156H527.164L512.415 237.881L506.348 237.999L502.429 441.156H470.279C470.279 441.156 468.449 228.776 470.408 195.558L546.231 195.018Z" fill="#4E8985"/>
<path d="M497.865 238.034H522.517" stroke="black" stroke-width="0.95" stroke-linecap="round" stroke-linejoin="round"/>
<path d="M495.237 7.78339C495.237 7.78339 504.553 -4.83033 521.051 3.58273C539.156 12.8054 529.37 32.694 529.37 32.694L490.484 25.3839L495.237 7.78339Z" fill="#A74B22"/>
<path d="M487.457 32.8466C487.457 32.8466 477.284 12.8993 495.237 7.83032L498.464 18.5432L487.457 32.8466Z" fill="#A74B22"/>
<path d="M489.065 49.4824C493.055 49.3695 496.198 46.0433 496.086 42.053C495.973 38.0627 492.646 34.9194 488.656 35.0322C484.666 35.1451 481.523 38.4713 481.635 42.4616C481.748 46.4519 485.075 49.5952 489.065 49.4824Z" fill="#E8B499"/>
<path d="M484.759 41.2596C484.759 41.2596 487.633 39.8633 490.367 44.8502" stroke="#C47268" stroke-width="0.69" stroke-linecap="round" stroke-linejoin="round"/>
<path d="M529.71 49.4967C533.702 49.4967 536.938 46.2606 536.938 42.2687C536.938 38.2768 533.702 35.0408 529.71 35.0408C525.718 35.0408 522.482 38.2768 522.482 42.2687C522.482 46.2606 525.718 49.4967 529.71 49.4967Z" fill="#E8B499"/>
<path d="M533.782 41.1422C533.782 41.1422 530.872 39.8281 528.267 44.897" stroke="#C47268" stroke-width="0.69" stroke-linecap="round" stroke-linejoin="round"/>
<path d="M518.563 58.9305C516.198 60.5778 513.56 61.7934 510.772 62.521C508.222 62.8434 505.636 62.3287 503.403 61.0543L499.062 58.5551L497.29 82.351L497.771 82.7499C500.825 85.271 504.655 86.6625 508.615 86.6903C512.575 86.7181 516.424 85.3804 519.513 82.9025L520.44 82.1515L518.563 58.9305Z" fill="#E8B499"/>
<path d="M497.29 56.0442C497.29 56.0442 501.338 69.3033 510.666 69.1507C518.328 69.0334 519.56 56.0442 519.56 56.0442H497.29Z" fill="#1E0B02"/>
<path d="M528.807 29.6902C528.831 36.4997 528.083 43.2899 526.577 49.9308C525.404 54.8355 521.145 58.2735 516.627 61.0544L515.806 61.5589C511.018 64.5041 507.064 64.598 502.171 61.8171C497.243 59.0127 492.655 55.2931 491.611 50.0834C490.347 43.4354 489.598 36.6998 489.37 29.9366C489.37 29.9366 486.554 7.7834 507.85 8.07674C529.147 8.37008 528.807 29.6902 528.807 29.6902Z" fill="#E8B499"/>
<path d="M499.883 37.892C500.836 37.892 501.608 37.1197 501.608 36.1671C501.608 35.2145 500.836 34.4423 499.883 34.4423C498.931 34.4423 498.158 35.2145 498.158 36.1671C498.158 37.1197 498.931 37.892 499.883 37.892Z" fill="#1E0B02"/>
<path d="M516.791 37.892C517.744 37.892 518.516 37.1197 518.516 36.1671C518.516 35.2145 517.744 34.4423 516.791 34.4423C515.839 34.4423 515.066 35.2145 515.066 36.1671C515.066 37.1197 515.839 37.892 516.791 37.892Z" fill="#1E0B02"/>
<path d="M506.771 40.673V43.4421H509.012" stroke="#C47268" stroke-width="0.69" stroke-linecap="round" stroke-linejoin="round"/>
<path d="M493.5 28.9041L504.753 27.895C504.753 27.895 503.744 24.9733 499.191 25.4544C494.638 25.9355 493.5 28.9041 493.5 28.9041Z" fill="black"/>
<path d="M522.482 28.9041L511.23 27.895C511.23 27.895 512.239 24.9733 516.792 25.4544C521.344 25.9355 522.482 28.9041 522.482 28.9041Z" fill="black"/>
<path d="M502.887 47.3729H513.987C513.987 47.3729 513.471 50.7757 508.273 50.7757C503.075 50.7757 502.887 47.3729 502.887 47.3729Z" fill="white"/>
<path d="M490.062 40.3444C490.062 40.3444 490.895 13.2747 490.555 12.5003C490.543 12.4768 480.945 21.371 490.062 40.3444Z" fill="#A74B22"/>
<path d="M527.997 40.1567L526.565 10.7521C526.565 10.7521 535.741 19.9278 527.997 40.1567Z" fill="#A74B22"/>
<path d="M498.968 10.1301C498.968 10.1301 492.327 11.8902 492.585 18.3437C492.843 24.7973 488.42 31.2508 488.42 31.2508L486.46 24.7503C486.46 24.7503 484.876 12.6763 498.968 10.1301Z" fill="#A74B22"/>
<path d="M497.302 10.6346C497.302 10.6346 502.242 7.83022 507.158 14.0021C511.347 19.2706 522.412 24.7033 528.947 19.5405C528.947 19.5405 524.782 4.61519 508.507 4.92026C492.233 5.22534 497.302 10.6346 497.302 10.6346Z" fill="#A74B22"/>
<path d="M474.257 91.3744C441.473 107.802 414.415 138.309 414.415 138.309L432.016 159.512L481.59 128.019L474.257 91.3744Z" fill="#EEC86A"/>
<path d="M563.398 217.91L573.266 243.056L580.893 242.246L575.108 209.72L563.398 217.91Z" fill="#E8B499"/>
<path d="M572.89 239.102C571.728 241.507 571.066 244.123 570.945 246.791C570.824 249.46 571.246 252.125 572.186 254.625L570.731 263.191C570.616 263.826 570.721 264.481 571.028 265.048C571.335 265.615 571.826 266.061 572.421 266.312C572.733 266.437 573.068 266.495 573.404 266.483C573.74 266.471 574.07 266.389 574.373 266.242C574.676 266.095 574.944 265.887 575.162 265.63C575.379 265.373 575.541 265.074 575.636 264.751L577.314 259.859L577.631 261.666C578.135 264.512 577.724 267.445 576.457 270.043L572.937 277.295C572.739 277.709 572.647 278.166 572.669 278.625C572.692 279.084 572.828 279.53 573.066 279.923C573.265 280.266 573.547 280.553 573.886 280.758C574.225 280.962 574.611 281.077 575.007 281.093C575.403 281.108 575.796 281.023 576.15 280.845C576.505 280.667 576.808 280.402 577.032 280.076L582.829 271.24C583.949 269.493 584.707 267.538 585.056 265.492C585.404 263.446 585.337 261.35 584.858 259.331L579.719 237.036L572.89 239.102Z" fill="#E8B499"/>
<path d="M540.705 90.4003C540.705 90.4003 552.251 93.3102 558.4 110.641C570.72 145.384 583.498 238.456 583.498 238.456L561.439 242.61L530.52 123.372L540.705 90.4003Z" fill="#EEC86A"/>
<path d="M533.5 87.1971L543.392 91.5972C545.353 92.4704 547.02 93.8919 548.192 95.6906C549.364 97.4892 549.991 99.5883 549.998 101.735L550.35 209.04H467.439V101.653C467.44 99.4593 468.088 97.3145 469.303 95.488C470.518 93.6614 472.245 92.2344 474.268 91.386L484.359 87.1501L533.5 87.1971Z" fill="#EEC86A"/>
<path d="M509.517 76.8011L533.5 87.1972C533.5 87.1972 508.86 109.491 484.36 87.1972L509.517 76.8011Z" fill="#E8B499"/>
<path d="M484.36 87.1383C487.538 90.4076 491.353 92.9908 495.569 94.7283C499.785 96.4659 504.312 97.3211 508.871 97.241C513.444 97.3139 517.985 96.4606 522.22 94.7324C526.454 93.0042 530.296 90.437 533.512 87.1852" stroke="white" stroke-width="1.94" stroke-miterlimit="10"/>
<path d="M550.303 196.802L550.068 125.473" stroke="black" stroke-width="0.95" stroke-linecap="round" stroke-linejoin="round"/>
<path d="M467.439 137.089V125.12" stroke="black" stroke-width="0.95" stroke-linecap="round" stroke-linejoin="round"/>
<path d="M378.123 38.291C378.123 38.291 388.777 33.5975 392.555 42.5151C396.193 51.198 381.749 59.4116 381.749 59.4116L378.123 38.291Z" fill="#1E0B02"/>
<path d="M351.171 81.5875C355.161 81.4746 358.304 78.1484 358.191 74.1581C358.078 70.1678 354.752 67.0245 350.762 67.1373C346.772 67.2502 343.628 70.5764 343.741 74.5667C343.854 78.557 347.18 81.7003 351.171 81.5875Z" fill="#C67D69"/>
<path d="M346.829 73.3512C346.829 73.3512 349.704 71.9549 352.438 76.9417" stroke="#A8523F" stroke-width="0.75" stroke-linecap="round" stroke-linejoin="round"/>
<path d="M391.816 81.6002C395.808 81.6002 399.044 78.3641 399.044 74.3722C399.044 70.3804 395.808 67.1443 391.816 67.1443C387.824 67.1443 384.588 70.3804 384.588 74.3722C384.588 78.3641 387.824 81.6002 391.816 81.6002Z" fill="#C67D69"/>
<path d="M395.899 73.2456C395.899 73.2456 392.989 71.9315 390.384 77.0004" stroke="#A8523F" stroke-width="0.75" stroke-linecap="round" stroke-linejoin="round"/>
<path d="M380.669 91.0339C378.304 92.677 375.666 93.8886 372.878 94.6127C370.328 94.9351 367.742 94.4204 365.509 93.146L361.168 90.6467L359.396 114.443L359.877 114.842C362.931 117.363 366.761 118.754 370.721 118.782C374.681 118.81 378.53 117.472 381.62 114.994L382.547 114.243L380.669 91.0339Z" fill="#C67D69"/>
<path d="M359.396 88.1476C359.396 88.1476 363.444 101.407 372.772 101.254C380.435 101.137 381.667 88.1476 381.667 88.1476H359.396Z" fill="#1E0B02"/>
<path d="M390.912 61.7583C390.937 68.5677 390.189 75.358 388.683 81.9989C387.509 86.9036 384.377 90.3416 379.847 93.1225L379.026 93.627C376.64 95.0725 373.913 95.8582 371.123 95.9035C368.334 95.9489 365.582 95.2523 363.15 93.8851C358.222 91.0808 354.761 87.3612 353.669 82.1514C352.406 75.5034 351.656 68.7679 351.428 62.0047C351.428 62.0047 348.647 39.8984 369.944 40.1917C391.241 40.4851 390.912 61.7583 390.912 61.7583Z" fill="#C67D69"/>
<path d="M361.989 69.9954C362.941 69.9954 363.714 69.2231 363.714 68.2705C363.714 67.3179 362.941 66.5457 361.989 66.5457C361.036 66.5457 360.264 67.3179 360.264 68.2705C360.264 69.2231 361.036 69.9954 361.989 69.9954Z" fill="#1E0B02"/>
<path d="M378.897 69.9954C379.85 69.9954 380.622 69.2231 380.622 68.2705C380.622 67.3179 379.85 66.5457 378.897 66.5457C377.945 66.5457 377.172 67.3179 377.172 68.2705C377.172 69.2231 377.945 69.9954 378.897 69.9954Z" fill="#1E0B02"/>
<path d="M368.888 70.7817V75.5339H371.951" stroke="#A8523F" stroke-width="0.75" stroke-linecap="round" stroke-linejoin="round"/>
<path d="M355.57 60.9839L366.823 59.9748C366.823 59.9748 365.814 57.0531 361.261 57.5342C356.708 58.0153 355.57 60.9839 355.57 60.9839Z" fill="black"/>
<path d="M384.588 60.9839L373.335 59.9748C373.335 59.9748 374.344 57.0531 378.897 57.5342C383.45 58.0153 384.588 60.9839 384.588 60.9839Z" fill="black"/>
<path d="M365.028 79.4764H376.163C376.163 79.4764 375.647 82.8792 370.449 82.8792C365.251 82.8792 365.028 79.4764 365.028 79.4764Z" fill="white"/>
<path d="M352.167 72.4478C352.167 72.4478 355.324 48.5463 353.775 44.6038C353.775 44.6038 343.05 53.4744 352.167 72.4478Z" fill="#1E0B02"/>
<path d="M390.115 72.26C390.115 72.26 386.595 49.4262 387.557 42.8671C387.545 42.8553 397.906 52.0311 390.115 72.26Z" fill="#1E0B02"/>
<path d="M386.806 41.2244L376.985 39.7342L376.163 38.0446L370.977 38.8307L365.791 38.0446L364.922 39.7459L355.043 41.2244L353.775 46.5046L354.104 52.5591C354.104 52.5591 355.653 45.6949 361.062 47.056C362.341 47.3728 363.866 47.9126 365.65 48.2294C367.212 48.5696 368.804 48.7543 370.402 48.7809H371.47C373.068 48.7543 374.66 48.5696 376.222 48.2294C377.775 47.9398 379.308 47.5479 380.81 47.056C385.82 45.3077 387.674 52.2423 387.674 52.2423L388.096 46.5046L386.806 41.2244Z" fill="#1E0B02"/>
<path d="M386.606 47.2086C384.587 48.8552 382.121 49.8602 379.526 50.0944C376.931 50.3286 374.326 49.7812 372.044 48.5227C372.044 48.5227 351.241 61.3359 345.362 47.3494C340.469 35.7213 360.792 19.9277 381.737 37.716L386.606 47.2086Z" fill="#1E0B02"/>
<path d="M396.228 412.42L399.584 454.286L418.088 454.861L418.135 405.216L396.228 412.42Z" fill="#C67D69"/>
<path d="M399.232 449.851C399.232 449.851 412.057 457.325 418.452 445.615L465.386 470.525L392.297 470.091L399.232 449.851Z" fill="#101010"/>
<path d="M457.02 455.67C457.02 455.67 438.974 458.369 440.37 480.804L471.593 472.25L457.02 455.67Z" fill="white"/>
<path d="M392.293 470.065L392.254 476.46L465.342 476.907L465.381 470.512L392.293 470.065Z" fill="white"/>
<path d="M424.013 457.794C424.214 457.714 424.388 457.58 424.518 457.407C426.119 455.258 428.052 453.377 430.244 451.834C430.503 451.663 430.684 451.398 430.748 451.094C430.812 450.791 430.753 450.474 430.584 450.214C430.393 449.956 430.113 449.779 429.797 449.718C429.482 449.657 429.156 449.717 428.883 449.886C426.445 451.575 424.301 453.652 422.535 456.034C422.355 456.287 422.283 456.6 422.334 456.905C422.384 457.211 422.553 457.484 422.805 457.665C422.98 457.785 423.182 457.86 423.393 457.883C423.604 457.905 423.817 457.875 424.013 457.794Z" fill="white"/>
<path d="M429.986 460.786C430.186 460.706 430.361 460.572 430.49 460.399C432.092 458.25 434.025 456.369 436.216 454.826C436.475 454.655 436.657 454.39 436.72 454.086C436.784 453.783 436.725 453.466 436.557 453.206C436.368 452.946 436.087 452.767 435.771 452.706C435.455 452.645 435.128 452.706 434.855 452.878C432.418 454.567 430.274 456.644 428.507 459.026C428.328 459.279 428.256 459.592 428.306 459.897C428.357 460.203 428.526 460.476 428.777 460.657C428.952 460.777 429.154 460.852 429.365 460.875C429.576 460.897 429.789 460.867 429.986 460.786Z" fill="white"/>
<path d="M436.005 463.767C436.205 463.686 436.38 463.553 436.509 463.379C438.111 461.23 440.044 459.349 442.235 457.806C442.495 457.636 442.676 457.37 442.74 457.067C442.803 456.763 442.744 456.447 442.576 456.187C442.387 455.926 442.106 455.747 441.79 455.686C441.474 455.625 441.147 455.687 440.874 455.858C438.437 457.548 436.293 459.625 434.526 462.007C434.347 462.259 434.275 462.572 434.325 462.878C434.376 463.183 434.545 463.456 434.796 463.638C434.971 463.758 435.173 463.832 435.384 463.855C435.595 463.877 435.808 463.847 436.005 463.767Z" fill="white"/>
<path d="M353.869 412.42L354.984 454.286L336.48 454.861L331.951 405.216L353.869 412.42Z" fill="#C67D69"/>
<path d="M355.043 449.851C355.043 449.851 342.218 457.325 335.823 445.615L288.888 470.525L361.977 470.079L355.043 449.851Z" fill="#101010"/>
<path d="M297.23 455.67C297.23 455.67 315.277 458.369 313.881 480.804L282.657 472.25L297.23 455.67Z" fill="white"/>
<path d="M361.952 470.072L288.864 470.518L288.903 476.913L361.991 476.466L361.952 470.072Z" fill="white"/>
<path d="M330.237 457.794C330.037 457.714 329.862 457.58 329.733 457.407C328.131 455.258 326.198 453.377 324.007 451.834C323.748 451.663 323.566 451.398 323.503 451.094C323.439 450.791 323.498 450.474 323.666 450.214C323.857 449.956 324.138 449.779 324.453 449.718C324.768 449.657 325.095 449.717 325.368 449.886C327.805 451.575 329.949 453.652 331.716 456.034C331.895 456.287 331.967 456.6 331.917 456.905C331.866 457.211 331.697 457.484 331.446 457.665C331.271 457.785 331.069 457.86 330.858 457.883C330.647 457.905 330.434 457.875 330.237 457.794Z" fill="white"/>
<path d="M324.265 460.786C324.065 460.706 323.89 460.572 323.761 460.399C322.159 458.25 320.226 456.369 318.035 454.826C317.775 454.655 317.594 454.39 317.53 454.086C317.467 453.783 317.526 453.466 317.694 453.206C317.883 452.946 318.164 452.767 318.48 452.706C318.796 452.645 319.123 452.706 319.396 452.878C321.833 454.567 323.977 456.644 325.744 459.026C325.923 459.279 325.995 459.592 325.945 459.897C325.894 460.203 325.725 460.476 325.474 460.657C325.299 460.777 325.097 460.852 324.886 460.875C324.675 460.897 324.462 460.867 324.265 460.786Z" fill="white"/>
<path d="M318.293 463.767C318.092 463.686 317.917 463.553 317.788 463.379C316.186 461.23 314.253 459.349 312.062 457.806C311.803 457.636 311.622 457.37 311.558 457.067C311.494 456.763 311.553 456.447 311.722 456.187C311.91 455.926 312.191 455.747 312.507 455.686C312.823 455.625 313.151 455.687 313.423 455.858C315.86 457.548 318.004 459.625 319.771 462.007C319.95 462.259 320.023 462.572 319.972 462.878C319.921 463.183 319.752 463.456 319.501 463.638C319.326 463.758 319.124 463.832 318.913 463.855C318.702 463.877 318.489 463.847 318.293 463.767Z" fill="white"/>
<path d="M374.133 251.023L390.56 432.895H423.227L410.907 215.47L370.39 211.95L336.867 210.295L323.361 325.38C323.105 327.86 323.378 330.367 324.164 332.733C324.949 335.1 326.229 337.273 327.917 339.108C329.606 340.943 331.665 342.398 333.958 343.377C336.252 344.356 338.727 344.837 341.22 344.787C345.247 344.691 349.12 343.216 352.191 340.608C355.262 338.001 357.345 334.419 358.093 330.46L374.133 251.023Z" fill="#7B97FB"/>
<path d="M359.525 249.251L380.563 251.926" stroke="black" stroke-width="0.95" stroke-linecap="round" stroke-linejoin="round"/>
<path d="M429.798 436.028H386.736L384.659 416.515H427.721L429.798 436.028Z" fill="#A1B9FC"/>
<path d="M358.093 330.483L360.1 430.044H325.626L323.315 325.379L358.093 330.483Z" fill="#7B97FB"/>
<path d="M364.265 416.515H321.214V436.028H364.265V416.515Z" fill="#A1B9FC"/>
<path d="M406.952 123.865L382.546 114.243L359.396 114.443L328.888 128.723C326.541 130.154 326.952 133.052 327.82 135.763L334.72 217.359L411.282 216.303L416.257 133.334C416.903 130.624 409.475 125.12 406.952 123.865Z" fill="#E180A0"/>
<path d="M359.396 114.443L352.579 117.576C352.579 117.576 352.508 129.016 371.036 128.417C390.044 127.807 389.997 117.036 389.997 117.036L382.546 114.231L359.396 114.443Z" fill="#C67D69"/>
<path d="M447.234 174.848L395.758 150.266L421.279 135.082L444.136 149.233L447.234 174.848Z" fill="#C67D69"/>
<path d="M437.683 94.7302L447.645 91.0928L465.245 160.603C465.823 162.344 466.001 164.192 465.767 166.011C465.532 167.83 464.89 169.573 463.889 171.11C462.887 172.647 461.553 173.938 459.984 174.888C458.415 175.838 456.652 176.422 454.826 176.596C451.7 176.893 448.58 175.973 446.115 174.028C443.65 172.083 442.029 169.262 441.59 166.153L437.683 94.7302Z" fill="#C67D69"/>
<path d="M437.683 94.7302L432.989 89.4852C430.511 86.7495 428.711 83.4698 427.733 79.9105L426.008 73.6447C425.912 73.2945 425.894 72.9276 425.955 72.5697C426.015 72.2117 426.153 71.8713 426.359 71.572C426.564 71.2727 426.832 71.0218 427.145 70.8367C427.457 70.6516 427.806 70.5367 428.167 70.5001C428.799 70.4352 429.435 70.5603 429.995 70.8592C430.555 71.1581 431.014 71.6172 431.312 72.178L434.527 78.2912L435.418 51.3037C435.422 51.0291 435.485 50.7584 435.601 50.5097C435.718 50.261 435.886 50.0399 436.095 49.8612C436.303 49.6825 436.548 49.5503 436.811 49.4733C437.075 49.3963 437.352 49.3763 437.624 49.4146L438.399 49.5202C438.841 49.5815 439.248 49.7937 439.552 50.1209C439.855 50.448 440.037 50.87 440.065 51.3155V67.3202L442.635 48.9335C442.655 48.6568 442.735 48.3876 442.868 48.1443C443.002 47.901 443.186 47.6893 443.409 47.5235C443.631 47.3577 443.887 47.2417 444.158 47.1833C444.43 47.1249 444.71 47.1256 444.981 47.1852L445.544 47.3026C446.007 47.3956 446.42 47.6545 446.705 48.0305C446.99 48.4064 447.128 48.8736 447.093 49.3442L444.981 68.5523L449.37 53.5449C449.449 53.268 449.59 53.0124 449.781 52.7967C449.972 52.5811 450.209 52.4108 450.475 52.2984C450.74 52.186 451.027 52.1342 451.315 52.1468C451.603 52.1595 451.884 52.2362 452.139 52.3715L452.362 52.4888C452.726 52.6819 453.02 52.9864 453.199 53.3579C453.379 53.7293 453.435 54.1484 453.359 54.554L450.355 70.7465L453.441 61.207C453.541 60.8947 453.719 60.6129 453.958 60.3882C454.197 60.1634 454.489 60.003 454.807 59.9221C455.125 59.8412 455.458 59.8423 455.775 59.9255C456.093 60.0086 456.384 60.171 456.621 60.3974C456.862 60.6275 457.039 60.9158 457.135 61.2344C457.232 61.553 457.245 61.8911 457.173 62.2161L449.17 98.0156L437.683 94.7302Z" fill="#C67D69"/>
<path d="M434.468 78.2911C436.249 78.8542 437.885 79.8034 439.258 81.071C440.631 82.3386 441.708 83.8934 442.411 85.6247" stroke="#A8523F" stroke-width="0.75" stroke-linecap="round" stroke-linejoin="round"/>
<path d="M440.476 148.048L441.532 161.284" stroke="#A8523F" stroke-width="0.75" stroke-linecap="round" stroke-linejoin="round"/>
<path d="M403.549 122.715C422.64 128.511 435.852 144.117 435.852 144.117L421.49 172.618L388.519 157.364L403.549 122.715Z" fill="#E180A0"/>
<path d="M414.098 169.18L404.723 164.839" stroke="black" stroke-width="0.95" stroke-linecap="round" stroke-linejoin="round"/>
<path d="M313.857 155.171L302.241 196.989C300.927 203.642 308.788 211.175 315.148 212.877C321.449 214.543 320.111 209.615 321.766 203.138L337.594 163.572L313.857 155.171Z" fill="#C67D69"/>
<path d="M303.414 201.835C305.467 210.377 332.455 229.222 332.455 229.222L347.92 229.363L319.853 190.641L303.414 201.835Z" fill="#C67D69"/>
<path d="M352.696 233.458C355.129 234.607 357.847 235.015 360.51 234.631C360.971 234.52 361.388 234.272 361.705 233.92C362.022 233.568 362.225 233.128 362.288 232.658C362.35 232.188 362.268 231.71 362.054 231.287C361.839 230.865 361.502 230.517 361.085 230.29C356.028 227.685 345.397 221.618 341.197 220.093L333.922 218.075L327.011 224.857L332.408 229.163C332.408 229.163 333.711 236.004 336.339 238.327C336.351 238.386 347.779 240.111 352.696 233.458Z" fill="#C67D69"/>
<path d="M324.324 196.802L319.818 190.583" stroke="#A8523F" stroke-width="0.75" stroke-linecap="round" stroke-linejoin="round"/>
<path d="M328.865 128.723C328.865 128.723 309.622 135.153 305.656 169.333L343.743 180.679L354.303 147.626L328.865 128.723Z" fill="#E180A0"/>
<path d="M331.704 177.828L329.991 158.843" stroke="black" stroke-width="0.95" stroke-linecap="round" stroke-linejoin="round"/>
<path d="M343.602 121.847C343.602 121.847 339.718 123.923 342.769 129.955C343.603 131.609 343.794 133.514 343.307 135.301C342.819 137.089 341.687 138.633 340.129 139.635L333.417 143.953C332.533 144.526 331.539 144.906 330.498 145.067C329.457 145.229 328.394 145.169 327.378 144.891C326.362 144.612 325.416 144.123 324.602 143.454C323.789 142.784 323.126 141.951 322.657 141.008C321.343 138.309 320.498 135.246 321.484 132.618C323.925 126.294 338.087 119.007 343.602 121.847Z" fill="#E8B499"/>
<path d="M658.417 430.255V459.296L671.923 459.754L672.826 421.173L658.417 430.255Z" fill="#CF7C6C"/>
<path d="M657.772 455.741C657.772 455.741 667.159 461.666 672.181 452.561L708.637 471.91L651.846 471.558L657.772 455.741Z" fill="#101010"/>
<path d="M702.172 460.375C702.172 460.375 688.15 462.476 689.265 479.9L713.53 473.247L702.172 460.375Z" fill="white"/>
<path d="M651.872 471.568L651.841 476.531L708.631 476.878L708.662 471.915L651.872 471.568Z" fill="white"/>
<path d="M676.546 462.03C676.704 461.966 676.842 461.861 676.945 461.725C678.189 460.056 679.69 458.594 681.392 457.395C681.494 457.332 681.583 457.249 681.651 457.151C681.72 457.052 681.768 456.941 681.792 456.823C681.817 456.706 681.816 456.584 681.792 456.467C681.768 456.349 681.719 456.238 681.65 456.14C681.502 455.941 681.286 455.805 681.043 455.757C680.8 455.71 680.548 455.754 680.336 455.882C678.428 457.205 676.751 458.835 675.373 460.704C675.3 460.8 675.247 460.909 675.218 461.026C675.189 461.143 675.184 461.265 675.204 461.383C675.223 461.502 675.267 461.616 675.333 461.717C675.398 461.818 675.484 461.905 675.584 461.971C675.726 462.062 675.889 462.114 676.057 462.125C676.226 462.135 676.394 462.102 676.546 462.03Z" fill="white"/>
<path d="M681.169 464.353C681.327 464.289 681.465 464.184 681.568 464.048C682.812 462.379 684.313 460.917 686.015 459.719C686.117 459.656 686.205 459.572 686.274 459.474C686.343 459.376 686.391 459.264 686.415 459.147C686.439 459.029 686.439 458.908 686.415 458.79C686.39 458.673 686.342 458.561 686.273 458.463C686.125 458.264 685.908 458.129 685.664 458.083C685.421 458.037 685.169 458.085 684.959 458.217C683.067 459.529 681.402 461.142 680.031 462.992C679.957 463.088 679.905 463.198 679.876 463.315C679.847 463.431 679.842 463.553 679.862 463.672C679.881 463.791 679.925 463.904 679.991 464.005C680.056 464.106 680.142 464.193 680.242 464.26C680.377 464.35 680.532 464.405 680.694 464.421C680.855 464.438 681.018 464.414 681.169 464.353Z" fill="white"/>
<path d="M685.804 466.665C685.962 466.601 686.099 466.495 686.203 466.36C687.447 464.69 688.948 463.229 690.65 462.03C690.752 461.967 690.84 461.884 690.909 461.785C690.978 461.687 691.026 461.576 691.05 461.458C691.074 461.34 691.074 461.219 691.05 461.101C691.025 460.984 690.977 460.873 690.908 460.774C690.762 460.574 690.545 460.436 690.301 460.388C690.058 460.34 689.805 460.386 689.594 460.516C687.702 461.829 686.037 463.442 684.665 465.292C684.592 465.388 684.54 465.497 684.51 465.614C684.481 465.731 684.477 465.853 684.496 465.971C684.516 466.09 684.56 466.204 684.626 466.305C684.691 466.406 684.776 466.492 684.877 466.559C685.011 466.651 685.165 466.709 685.327 466.727C685.489 466.745 685.652 466.724 685.804 466.665Z" fill="white"/>
<path d="M665.587 210.248C665.587 210.248 689.711 238.832 681.943 315.206L675.736 442.658H656.129L643.222 210.213L665.587 210.248Z" fill="#DA4412"/>
<path d="M631.301 430.255V459.296L617.795 459.754L616.892 421.173L631.301 430.255Z" fill="#CF7C6C"/>
<path d="M631.958 455.741C631.958 455.741 622.571 461.666 617.549 452.561L581.092 471.91L637.883 471.558L631.958 455.741Z" fill="#101010"/>
<path d="M587.545 460.375C587.545 460.375 601.567 462.476 600.453 479.9L576.222 473.259L587.545 460.375Z" fill="white"/>
<path d="M637.838 471.566L581.048 471.913L581.078 476.876L637.868 476.529L637.838 471.566Z" fill="white"/>
<path d="M613.184 462.03C613.026 461.966 612.888 461.861 612.785 461.725C611.541 460.056 610.04 458.594 608.338 457.395C608.236 457.332 608.147 457.249 608.078 457.151C608.01 457.052 607.962 456.941 607.937 456.823C607.913 456.706 607.913 456.584 607.938 456.467C607.962 456.349 608.011 456.238 608.08 456.14C608.228 455.941 608.444 455.805 608.687 455.757C608.93 455.71 609.182 455.754 609.394 455.882C611.302 457.205 612.979 458.835 614.357 460.704C614.43 460.8 614.483 460.909 614.512 461.026C614.541 461.143 614.546 461.265 614.526 461.383C614.506 461.502 614.463 461.616 614.397 461.717C614.332 461.818 614.246 461.905 614.146 461.971C614.004 462.062 613.841 462.114 613.672 462.125C613.504 462.135 613.336 462.102 613.184 462.03Z" fill="white"/>
<path d="M608.549 464.353C608.391 464.289 608.253 464.184 608.15 464.048C606.906 462.379 605.405 460.917 603.703 459.719C603.601 459.656 603.513 459.572 603.444 459.474C603.375 459.376 603.327 459.264 603.303 459.147C603.279 459.029 603.279 458.908 603.303 458.79C603.328 458.673 603.376 458.561 603.445 458.463C603.593 458.264 603.81 458.129 604.054 458.083C604.297 458.037 604.549 458.085 604.759 458.217C606.651 459.529 608.316 461.142 609.687 462.992C609.76 463.088 609.813 463.198 609.842 463.315C609.871 463.431 609.876 463.553 609.856 463.672C609.837 463.791 609.793 463.904 609.727 464.005C609.662 464.106 609.576 464.193 609.476 464.26C609.341 464.35 609.186 464.405 609.024 464.421C608.863 464.438 608.7 464.414 608.549 464.353Z" fill="white"/>
<path d="M603.914 466.665C603.756 466.601 603.618 466.495 603.515 466.36C602.271 464.69 600.77 463.229 599.068 462.03C598.966 461.967 598.878 461.884 598.809 461.785C598.74 461.687 598.692 461.576 598.668 461.458C598.644 461.34 598.644 461.219 598.668 461.101C598.693 460.984 598.741 460.873 598.81 460.774C598.956 460.574 599.173 460.436 599.416 460.388C599.66 460.34 599.913 460.386 600.124 460.516C602.016 461.829 603.681 463.442 605.052 465.292C605.125 465.388 605.178 465.497 605.207 465.614C605.236 465.731 605.241 465.853 605.221 465.971C605.202 466.09 605.158 466.204 605.092 466.305C605.027 466.406 604.941 466.492 604.841 466.559C604.707 466.651 604.552 466.709 604.391 466.727C604.229 466.745 604.065 466.724 603.914 466.665Z" fill="white"/>
<path d="M622.77 210.248C622.77 210.248 598.657 238.832 606.425 315.206L612.632 442.658H634.375L645.088 210.213L622.77 210.248Z" fill="#DA4412"/>
<path d="M662.172 225.854H624.495V263.531H662.172V225.854Z" fill="#DA4412"/>
<path d="M648.855 263.543L631.465 262.463" stroke="black" stroke-width="0.95" stroke-linecap="round" stroke-linejoin="round"/>
<path d="M737.221 124.686L745.74 127.361L727.717 183.495C727.217 184.96 726.393 186.292 725.307 187.394C724.221 188.496 722.9 189.339 721.443 189.86C719.987 190.381 718.431 190.566 716.892 190.403C715.354 190.24 713.872 189.732 712.557 188.916C710.313 187.514 708.696 185.302 708.041 182.74C707.385 180.177 707.742 177.46 709.037 175.153L737.221 124.686Z" fill="#DE9A8C"/>
<path d="M737.561 122.774L738.242 120.556C739.162 117.573 740.77 114.849 742.935 112.601L746.713 108.693C746.926 108.472 747.184 108.3 747.469 108.189C747.755 108.077 748.061 108.03 748.367 108.049C748.673 108.068 748.971 108.153 749.241 108.299C749.51 108.444 749.745 108.647 749.928 108.893C750.25 109.324 750.435 109.842 750.46 110.379C750.485 110.916 750.349 111.449 750.069 111.908L747.03 116.907L764.631 107.273C764.832 107.153 765.057 107.077 765.29 107.051C765.523 107.025 765.759 107.049 765.982 107.123C766.204 107.196 766.409 107.317 766.581 107.477C766.752 107.636 766.888 107.831 766.977 108.048L767.236 108.658C767.382 109.005 767.404 109.393 767.297 109.754C767.19 110.116 766.961 110.429 766.649 110.641L755.033 117.552L769.477 111.462C769.683 111.359 769.91 111.302 770.14 111.293C770.371 111.283 770.601 111.324 770.815 111.41C771.029 111.497 771.222 111.628 771.382 111.794C771.542 111.961 771.664 112.16 771.741 112.378L771.906 112.835C772.039 113.211 772.031 113.622 771.881 113.992C771.732 114.362 771.453 114.664 771.096 114.842L758.635 120.943L769.113 118.397C769.349 118.332 769.596 118.32 769.837 118.363C770.077 118.406 770.305 118.503 770.504 118.646C770.702 118.789 770.865 118.975 770.982 119.19C771.099 119.405 771.166 119.643 771.178 119.887V120.098C771.197 120.447 771.103 120.792 770.911 121.084C770.719 121.375 770.438 121.598 770.11 121.718L759.409 125.12L765.276 124.628C765.545 124.565 765.825 124.572 766.091 124.648C766.357 124.723 766.599 124.865 766.794 125.06C766.99 125.254 767.133 125.495 767.211 125.761C767.288 126.026 767.296 126.306 767.236 126.575C767.171 126.847 767.038 127.098 766.849 127.303C766.66 127.508 766.421 127.662 766.156 127.749L739.086 136.033L737.455 129.814C736.827 127.504 736.863 125.064 737.561 122.774Z" fill="#DE9A8C"/>
<path d="M747.03 116.907C747.392 118.442 747.412 120.037 747.087 121.581C746.763 123.124 746.102 124.577 745.153 125.836" stroke="#C47268" stroke-width="0.75" stroke-linecap="round" stroke-linejoin="round"/>
<path d="M675.467 127.596C675.467 127.596 690.063 131.292 712.228 165.343L722.519 135.927L746.045 146.487L730.122 189.198C729.165 191.777 727.587 194.08 725.528 195.903C723.469 197.727 720.992 199.014 718.317 199.652C715.642 200.291 712.85 200.259 710.19 199.561C707.529 198.864 705.082 197.521 703.064 195.652C696.024 189.128 673.73 164.381 669.201 156.003L675.467 127.596Z" fill="#262722"/>
<path d="M603.174 205.238C603.174 205.238 614.333 208.383 608.408 220.492C603.069 231.381 593.799 233.657 586.114 231.827C585.807 231.747 585.522 231.601 585.279 231.398C585.036 231.195 584.842 230.941 584.709 230.653C584.576 230.366 584.51 230.052 584.513 229.736C584.517 229.419 584.59 229.107 584.729 228.823C584.914 228.459 585.199 228.155 585.55 227.948C585.901 227.74 586.304 227.636 586.712 227.649C589.493 227.649 594.468 227.25 595.841 223.507C597.636 218.638 595.09 213.299 597.918 208.254L603.174 205.238Z" fill="#DE9A8C"/>
<path d="M603.175 205.238L596.463 194.126L586.583 199.676L598.646 212.83L603.175 205.238Z" fill="#DE9A8C"/>
<path d="M603.093 132.524C603.093 132.524 584.154 141.911 560.675 165.778C559.492 166.97 558.649 168.457 558.237 170.086C557.824 171.714 557.856 173.424 558.329 175.035C560.124 181.02 566.237 191.005 585.316 204.065L601.931 195.605L587.416 176.268L615.178 164.757L603.093 132.524Z" fill="#262722"/>
<path d="M678.036 228.588L612.574 229.351L620.107 128.488H670.644L678.036 228.588Z" fill="white"/>
<path d="M611.811 128.488L603.093 132.524C603.093 132.524 616 179.459 597.32 251.762L613.454 255.493C613.454 255.493 630.902 203.126 629.318 132.512L611.811 128.488Z" fill="#262722"/>
<path d="M677.32 128.641L681.38 130.518C682.681 131.118 683.743 132.139 684.392 133.417C685.041 134.694 685.241 136.153 684.959 137.558C682.295 151.287 676.651 193.258 691.811 251.95L675.678 255.681C675.678 255.681 658.23 203.314 659.814 132.7L677.32 128.641Z" fill="#262722"/>
<path d="M653.078 110.359C651.136 111.982 648.896 113.21 646.484 113.973C643.339 114.689 640.288 112.507 640.241 112.483L636.569 109.96L635.09 128.148L635.501 128.547C636.684 129.791 638.104 130.784 639.679 131.468C641.253 132.152 642.949 132.513 644.665 132.528C646.382 132.543 648.084 132.213 649.67 131.558C651.257 130.902 652.695 129.934 653.899 128.711L654.686 127.96L653.078 110.359Z" fill="#DE9A8C"/>
<path d="M664.988 82.1516C665.007 88.718 664.25 95.2638 662.735 101.653C661.562 106.346 658.382 109.714 653.818 112.401L652.984 112.894C650.554 114.293 647.807 115.05 645.002 115.093C642.198 115.136 639.429 114.464 636.956 113.14C631.981 110.43 628.484 106.839 627.393 101.759C626.121 95.3408 625.368 88.8311 625.14 82.2924C625.14 82.2924 623.474 60.937 644.97 61.1717C666.466 61.4064 664.988 82.1516 664.988 82.1516Z" fill="#DE9A8C"/>
<path d="M635.807 90.2477C636.766 90.2477 637.543 89.4702 637.543 88.5111C637.543 87.552 636.766 86.7745 635.807 86.7745C634.848 86.7745 634.07 87.552 634.07 88.5111C634.07 89.4702 634.848 90.2477 635.807 90.2477Z" fill="#1E0B02"/>
<path d="M652.867 90.2477C653.826 90.2477 654.604 89.4702 654.604 88.5111C654.604 87.552 653.826 86.7745 652.867 86.7745C651.908 86.7745 651.131 87.552 651.131 88.5111C651.131 89.4702 651.908 90.2477 652.867 90.2477Z" fill="#1E0B02"/>
<path d="M642.753 92.7238V95.8567H644.865" stroke="#C47268" stroke-width="0.7" stroke-linecap="round" stroke-linejoin="round"/>
<path d="M629.317 81.1658L640.676 80.145C640.676 80.145 639.655 77.1998 635.067 77.6809C630.479 78.162 629.317 81.1658 629.317 81.1658Z" fill="black"/>
<path d="M658.605 81.1658L647.211 80.145C647.211 80.145 648.232 77.1998 652.82 77.6809C657.408 78.162 658.605 81.1658 658.605 81.1658Z" fill="black"/>
<path d="M637.543 98.3794C638.614 99.1606 639.836 99.7084 641.132 99.9873C642.427 100.266 643.767 100.27 645.064 99.9986" stroke="black" stroke-width="0.7" stroke-linecap="round" stroke-linejoin="round"/>
<path d="M625.727 74.4894C625.727 74.4894 639.725 63.6475 665.011 74.4894C665.011 74.4894 662.782 58.7428 645.369 58.7428C627.956 58.7428 625.727 74.4894 625.727 74.4894Z" fill="white"/>
<path d="M672.475 80.5322C671.965 75.1352 669.981 69.9823 666.74 65.6365C663.5 61.2908 659.127 57.9196 654.1 55.8914C648.289 53.5653 641.805 53.5653 635.995 55.8914C630.926 57.8869 626.506 61.2439 623.225 65.592C619.943 69.9401 617.926 75.1103 617.397 80.5322C615.378 99.5173 630.304 118.784 630.304 118.784L644.795 115.264L659.685 118.784C659.685 118.784 674.493 99.5056 672.475 80.5322ZM648.726 112.366C647.449 112.999 646.044 113.329 644.619 113.329C643.194 113.329 641.788 112.999 640.512 112.366C630.691 107.379 625.645 95.4457 626.244 82.3274C626.584 74.9587 630.937 69.7958 635.443 66.44C638.178 64.3718 641.513 63.2527 644.941 63.2527C648.37 63.2527 651.705 64.3718 654.44 66.44C658.887 69.7958 663.299 74.9587 663.639 82.3274C664.249 95.4574 658.746 107.438 648.726 112.366Z" fill="#7B97FB"/>
<path d="M631.887 115.147L611.811 128.488C611.811 128.488 637.543 149.925 679.385 129.661L658.394 115.147H631.887Z" fill="#7B97FB"/>
<path d="M630.338 116.614C632.281 118.389 634.586 119.721 637.094 120.519C639.602 121.317 642.253 121.562 644.865 121.237" stroke="#6081EA" stroke-width="0.67" stroke-linecap="round" stroke-linejoin="round"/>
<path d="M629.317 127.913C636.076 130.217 643.237 131.102 650.354 130.515C657.47 129.927 664.389 127.879 670.679 124.498" stroke="#6081EA" stroke-width="0.67" stroke-linecap="round" stroke-linejoin="round"/>
<path d="M636.44 115.874C638.899 116.287 641.418 116.152 643.819 115.481C646.22 114.81 648.444 113.618 650.333 111.99" stroke="#6081EA" stroke-width="0.67" stroke-linecap="round" stroke-linejoin="round"/>
<path d="M659.72 116.614C659.72 116.614 658.546 118.96 654.651 119.5" stroke="#6081EA" stroke-width="0.67" stroke-linecap="round" stroke-linejoin="round"/>
</svg>
