<svg width="59" height="24" viewBox="0 0 59 24" fill="none" xmlns="http://www.w3.org/2000/svg">
<path d="M10.7002 3.09381C11.3565 2.25004 11.8252 1.12502 11.6846 0C10.7002 0.0468759 9.52828 0.656262 8.82513 1.45315C8.21573 2.15629 7.65321 3.32819 7.79384 4.40634C8.91888 4.54697 9.99705 3.93758 10.7002 3.09381ZM11.6846 4.68759C10.0908 4.59384 8.73138 5.57824 7.98135 5.57824C7.23132 5.57824 6.0594 4.73447 4.79373 4.73447C3.15305 4.78134 1.65299 5.67199 0.809213 7.17202C-0.878349 10.1252 0.340446 14.4847 2.02801 16.8753C2.82491 18.0472 3.80932 19.3598 5.07499 19.3129C6.29379 19.266 6.76256 18.516 8.21573 18.516C9.66891 18.516 10.0908 19.3129 11.4034 19.266C12.7159 19.2191 13.5597 18.0941 14.3566 16.8753C15.2941 15.5159 15.6691 14.2034 15.6691 14.1565C15.6223 14.1097 13.0909 13.1721 13.0909 10.2658C13.044 7.82828 15.0597 6.65638 15.1535 6.60951C14.0753 4.92197 12.294 4.73447 11.6846 4.68759Z" fill="black"/>
<path d="M27.4662 1.35938C30.935 1.35938 33.3257 3.75007 33.3257 7.17206C33.3257 10.6409 30.8881 13.0316 27.3724 13.0316H23.5755V19.0787H20.8098V1.35938H27.4662ZM23.5755 10.7347H26.7162C29.1069 10.7347 30.4663 9.42213 30.4663 7.21893C30.4663 4.96886 29.1069 3.7032 26.7162 3.7032H23.5286V10.7347H23.5755ZM34.0288 15.4692C34.0288 13.2191 35.7632 11.8128 38.857 11.6253L42.4196 11.4378V10.4534C42.4196 9.00024 41.4352 8.15646 39.8414 8.15646C38.2945 8.15646 37.357 8.90649 37.1226 10.0315H34.5913C34.732 7.6877 36.7476 5.95327 39.9352 5.95327C43.0759 5.95327 45.0915 7.59394 45.0915 10.219V19.1256H42.5602V17.0161H42.5134C41.7634 18.4693 40.1227 19.3599 38.4352 19.3599C35.8101 19.3599 34.0288 17.7661 34.0288 15.4692ZM42.4196 14.2973V13.266L39.2321 13.4535C37.6383 13.5473 36.7476 14.2504 36.7476 15.3754C36.7476 16.5005 37.6852 17.2505 39.0914 17.2505C40.9665 17.2505 42.4196 15.9848 42.4196 14.2973ZM47.4353 23.907V21.7506C47.6228 21.7975 48.0916 21.7975 48.2791 21.7975C49.4979 21.7975 50.1541 21.2819 50.576 19.9693C50.576 19.9225 50.8104 19.1724 50.8104 19.1724L46.1228 6.23453H48.9822L52.2636 16.7817H52.3104L55.5918 6.23453H58.4043L53.5761 19.8756C52.4511 23.0163 51.1854 24.0007 48.5135 24.0007C48.326 23.9538 47.6697 23.9538 47.4353 23.907Z" fill="black"/>
</svg>
