<svg width="23" height="22" viewBox="0 0 23 22" fill="none" xmlns="http://www.w3.org/2000/svg">
<path d="M18.4347 10.6073C18.3596 9.16443 17.8578 7.77631 16.9928 6.61892C16.7293 6.90275 16.4476 7.16915 16.1495 7.41642C15.2337 8.17712 14.2103 8.79802 13.1126 9.25892C13.2657 9.57976 13.4059 9.89051 13.5297 10.1838V10.1866C13.5646 10.2686 13.5982 10.3511 13.6305 10.4341C15.0183 10.2783 16.4813 10.3351 17.8994 10.5267C18.0882 10.5523 18.2661 10.5798 18.4347 10.6073V10.6073ZM9.83182 3.77817C10.7251 5.03692 11.5489 6.34359 12.2995 7.69234C13.4206 7.25051 14.3473 6.69317 15.0935 6.07259C15.3525 5.85913 15.5963 5.62787 15.8232 5.38051C14.5041 4.27108 12.8351 3.6639 11.1115 3.66634C10.6825 3.66605 10.2543 3.70316 9.83182 3.77726V3.77817ZM4.01007 9.16359C4.63453 9.14783 5.25825 9.11023 5.88007 9.05084C7.38308 8.91641 8.87324 8.66447 10.3369 8.29734C9.57196 6.96837 8.74608 5.67541 7.86191 4.42259C6.91748 4.89046 6.08473 5.55597 5.42013 6.37398C4.75554 7.19199 4.27464 8.14338 4.01007 9.16359ZM5.41257 15.6151C5.76824 15.0953 6.23574 14.5105 6.85632 13.8743C8.18916 12.5085 9.76216 11.4452 11.5827 10.8585L11.6395 10.842C11.4882 10.5083 11.3462 10.2104 11.2032 9.92992C9.52016 10.4203 7.74732 10.7265 5.98091 10.8851C5.11924 10.963 4.34649 10.9969 3.77816 11.0024C3.77654 12.6823 4.35409 14.3114 5.41349 15.6151H5.41257ZM13.8661 17.7968C13.5126 16.0141 13.0122 14.2637 12.3701 12.5635C10.5349 13.2299 9.07282 14.2043 7.94257 15.3667C7.48644 15.8272 7.08166 16.3359 6.73532 16.8838C7.99923 17.8268 9.53453 18.3353 11.1115 18.333C12.0556 18.3344 12.991 18.1529 13.8661 17.7986V17.7968ZM15.583 16.8113C17.0142 15.7111 17.9891 14.1216 18.3211 12.3472C18.0094 12.2693 17.6143 12.1913 17.1798 12.1308C16.2138 11.9917 15.2335 11.9816 14.2648 12.1006C14.8103 13.6395 15.2507 15.2137 15.583 16.8123V16.8113ZM11.1115 20.1663C6.04874 20.1663 1.94482 16.0624 1.94482 10.9997C1.94482 5.93692 6.04874 1.83301 11.1115 1.83301C16.1742 1.83301 20.2782 5.93692 20.2782 10.9997C20.2782 16.0624 16.1742 20.1663 11.1115 20.1663Z" fill="#172B4D"/>
</svg>
