<svg width="23" height="22" viewBox="0 0 23 22" fill="none" xmlns="http://www.w3.org/2000/svg">
<path d="M7.37825 4.9043C7.964 4.9043 8.50575 4.95013 9.00075 5.0858C9.44993 5.16834 9.87869 5.33772 10.263 5.58446C10.6242 5.81088 10.8946 6.12896 11.0743 6.53688C11.2548 6.9448 11.3447 7.44438 11.3447 7.98796C11.3447 8.62321 11.2099 9.1668 10.8946 9.57471C10.6242 9.98355 10.1732 10.3456 9.63234 10.6179C10.3987 10.8452 10.9844 11.2531 11.3447 11.7967C11.7058 12.3412 11.9313 13.0214 11.9313 13.7923C11.9313 14.4275 11.7957 14.9711 11.5702 15.4249C11.3447 15.8786 10.9844 16.2865 10.5783 16.5588C10.1372 16.8506 9.64961 17.0651 9.13642 17.1931C8.59559 17.3297 8.05475 17.4205 7.51392 17.4205H1.47217V4.9043H7.37825ZM7.01708 9.98263C7.513 9.98263 7.91909 9.84696 8.23442 9.62055C8.54975 9.39413 8.68542 8.9853 8.68542 8.48663C8.68542 8.21438 8.63958 7.94213 8.54975 7.76155C8.45992 7.58005 8.32425 7.44346 8.14459 7.3078C7.964 7.21705 7.78342 7.1263 7.55792 7.08138C7.33242 7.03555 7.10784 7.03555 6.8365 7.03555H4.22217V9.98355H7.018L7.01708 9.98263ZM7.15275 15.3341C7.42317 15.3341 7.69359 15.2883 7.91909 15.2434C8.14676 15.2001 8.36209 15.1071 8.54975 14.9711C8.73344 14.8384 8.88711 14.6685 9.00075 14.4725C9.09059 14.246 9.18134 13.9738 9.18134 13.6566C9.18134 13.0214 9.00075 12.5676 8.6405 12.2505C8.27933 11.9782 7.78342 11.8425 7.19767 11.8425H4.22217V15.335H7.15275V15.3341ZM15.8538 15.2883C16.214 15.6513 16.7548 15.8328 17.4763 15.8328C17.9722 15.8328 18.4232 15.6971 18.7834 15.4707C19.1446 15.1985 19.3701 14.9262 19.4599 14.654H21.6691C21.3079 15.742 20.7671 16.513 20.0466 17.0116C19.3243 17.4654 18.4681 17.7376 17.4313 17.7376C16.768 17.7396 16.1103 17.6165 15.4926 17.3746C14.9368 17.1661 14.4412 16.8235 14.0498 16.3773C13.6311 15.9598 13.3216 15.4457 13.1487 14.8804C12.9232 14.291 12.8324 13.6566 12.8324 12.9306C12.8324 12.2505 12.9232 11.6161 13.1487 11.0258C13.3655 10.4575 13.6863 9.93467 14.0947 9.48396C14.5008 9.07605 14.9967 8.71396 15.5375 8.48663C16.1395 8.24469 16.7826 8.12143 17.4313 8.12363C18.1977 8.12363 18.8742 8.26021 19.4599 8.57738C20.0466 8.89455 20.4967 9.25755 20.8578 9.80205C21.2263 10.325 21.5008 10.9082 21.6691 11.5254C21.7589 12.1597 21.8038 12.795 21.7589 13.52H15.2222C15.2222 14.246 15.4926 14.9262 15.8538 15.2892V15.2883ZM18.6936 10.5271C18.3783 10.21 17.8823 10.0285 17.2957 10.0285C16.8905 10.0285 16.5743 10.1192 16.3038 10.2549C16.0334 10.3915 15.8538 10.573 15.6732 10.7545C15.5072 10.9298 15.3974 11.1507 15.3578 11.3888C15.312 11.6161 15.2671 11.7967 15.2671 11.9782H19.3243C19.2344 11.298 19.0089 10.8452 18.6936 10.5271V10.5271ZM14.7263 5.76596H19.7753V6.99063H14.7272V5.76596H14.7263Z" fill="#172B4D"/>
</svg>
