<svg width="25" height="25" viewBox="0 0 25 25" fill="none" xmlns="http://www.w3.org/2000/svg">
<path d="M12.4476 22.9694C6.84108 22.9694 2.29639 18.4247 2.29639 12.8182C2.29639 7.21169 6.84108 2.66699 12.4476 2.66699C18.0541 2.66699 22.5988 7.21169 22.5988 12.8182C22.5988 18.4247 18.0541 22.9694 12.4476 22.9694ZM12.4476 20.9392C14.6014 20.9392 16.667 20.0836 18.19 18.5606C19.713 17.0376 20.5686 14.972 20.5686 12.8182C20.5686 10.6644 19.713 8.59879 18.19 7.07581C16.667 5.55283 14.6014 4.69723 12.4476 4.69723C10.2938 4.69723 8.22818 5.55283 6.70521 7.07581C5.18223 8.59879 4.32663 10.6644 4.32663 12.8182C4.32663 14.972 5.18223 17.0376 6.70521 18.5606C8.22818 20.0836 10.2938 20.9392 12.4476 20.9392V20.9392ZM13.4627 12.8182H17.5232V14.8484H11.4325V7.7426H13.4627V12.8182Z" fill="#172B4D" fill-opacity="0.5"/>
</svg>
