<svg width="23" height="22" viewBox="0 0 23 22" fill="none" xmlns="http://www.w3.org/2000/svg">
<path d="M11.3337 20.1663C6.27091 20.1663 2.16699 16.0624 2.16699 10.9997C2.16699 5.93692 6.27091 1.83301 11.3337 1.83301C16.3964 1.83301 20.5003 5.93692 20.5003 10.9997C20.5003 16.0624 16.3964 20.1663 11.3337 20.1663ZM9.23449 18.0278C8.33012 16.1095 7.80621 14.034 7.69174 11.9163H4.05716C4.23553 13.327 4.81975 14.6555 5.73885 15.7404C6.65794 16.8253 7.87234 17.62 9.23449 18.0278V18.0278ZM9.52783 11.9163C9.66624 14.1521 10.3052 16.2522 11.3337 18.1057C12.39 16.2032 13.007 14.0884 13.1395 11.9163H9.52783V11.9163ZM18.6102 11.9163H14.9756C14.8611 14.034 14.3372 16.1095 13.4328 18.0278C14.795 17.62 16.0094 16.8253 16.9285 15.7404C17.8476 14.6555 18.4318 13.327 18.6102 11.9163V11.9163ZM4.05716 10.083H7.69174C7.80621 7.96531 8.33012 5.88989 9.23449 3.97159C7.87234 4.3794 6.65794 5.17403 5.73885 6.25895C4.81975 7.34386 4.23553 8.67235 4.05716 10.083V10.083ZM9.52874 10.083H13.1386C13.0063 7.91106 12.3896 5.79625 11.3337 3.89367C10.2774 5.79617 9.66034 7.91099 9.52783 10.083H9.52874ZM13.4328 3.97159C14.3372 5.88989 14.8611 7.96531 14.9756 10.083H18.6102C18.4318 8.67235 17.8476 7.34386 16.9285 6.25895C16.0094 5.17403 14.795 4.3794 13.4328 3.97159V3.97159Z" fill="#172B4D"/>
</svg>
