<svg width="28" height="28" viewBox="0 0 28 28" fill="none" xmlns="http://www.w3.org/2000/svg">
<path d="M15.1668 23.261C17.5203 22.9616 19.6715 21.7772 21.1831 19.9486C22.6947 18.12 23.4533 15.7845 23.3048 13.4167C23.1562 11.0489 22.1116 8.82644 20.3833 7.20115C18.655 5.57586 16.3726 4.66965 14.0002 4.66671C11.6248 4.66494 9.3381 5.56893 7.60606 7.1945C5.87401 8.82006 4.82694 11.0449 4.6782 13.4156C4.52945 15.7863 5.29022 18.1245 6.8055 19.9538C8.32077 21.7832 10.4765 22.9659 12.8335 23.261V16.3334H10.5002V14H12.8335V12.0704C12.8335 10.5105 12.9968 9.94471 13.3002 9.37421C13.599 8.80976 14.0608 8.34834 14.6255 8.05004C15.0712 7.81087 15.6253 7.66737 16.5937 7.60554C16.9775 7.58104 17.4745 7.61137 18.0847 7.69887V9.91554H17.5002C16.4303 9.91554 15.9882 9.96571 15.7245 10.1069C15.5672 10.1878 15.4391 10.3159 15.3582 10.4732C15.2182 10.7369 15.1668 10.9982 15.1668 12.0692V14H18.0835L17.5002 16.3334H15.1668V23.261ZM14.0002 25.6667C7.55666 25.6667 2.3335 20.4435 2.3335 14C2.3335 7.55654 7.55666 2.33337 14.0002 2.33337C20.4437 2.33337 25.6668 7.55654 25.6668 14C25.6668 20.4435 20.4437 25.6667 14.0002 25.6667Z" fill="#0052CC"/>
</svg>
