<svg width="23" height="22" viewBox="0 0 23 22" fill="none" xmlns="http://www.w3.org/2000/svg">
<path d="M12.6947 18.2762C14.5438 18.0409 16.234 17.1103 17.4217 15.6736C18.6094 14.2368 19.2055 12.4017 19.0888 10.5413C18.972 8.68088 18.1513 6.93471 16.7933 5.65769C15.4353 4.38067 13.6421 3.66865 11.778 3.66634C9.91162 3.66495 8.11495 4.37523 6.75406 5.65246C5.39316 6.92969 4.57046 8.67775 4.45359 10.5405C4.33672 12.4032 4.93447 14.2404 6.12504 15.6777C7.31562 17.115 9.00942 18.0443 10.8613 18.2762V12.833H9.02799V10.9997H10.8613V9.48351C10.8613 8.25792 10.9897 7.81334 11.228 7.36509C11.4628 6.92159 11.8256 6.55906 12.2693 6.32467C12.6195 6.13676 13.0549 6.02401 13.8157 5.97542C14.1173 5.95617 14.5078 5.98001 14.9872 6.04876V7.79042H14.528C13.6874 7.79042 13.34 7.82984 13.1328 7.94076C13.0092 8.00434 12.9086 8.10498 12.845 8.22859C12.735 8.43576 12.6947 8.64109 12.6947 9.48259V10.9997H14.9863L14.528 12.833H12.6947V18.2762ZM11.778 20.1663C6.71525 20.1663 2.61133 16.0624 2.61133 10.9997C2.61133 5.93692 6.71525 1.83301 11.778 1.83301C16.8407 1.83301 20.9447 5.93692 20.9447 10.9997C20.9447 16.0624 16.8407 20.1663 11.778 20.1663Z" fill="#172B4D"/>
</svg>
