<svg width="25" height="26" viewBox="0 0 25 26" fill="none" xmlns="http://www.w3.org/2000/svg">
<path d="M17.0156 3.92383C20.0996 3.92383 22.5988 6.46163 22.5988 10.0146C22.5988 17.1204 14.9854 21.1809 12.4476 22.7036C9.90979 21.1809 2.29639 17.1204 2.29639 10.0146C2.29639 6.46163 4.83419 3.92383 7.87955 3.92383C9.76768 3.92383 11.4325 4.93895 12.4476 5.95407C13.4627 4.93895 15.1275 3.92383 17.0156 3.92383ZM13.3957 19.7638C14.29 19.1994 15.0971 18.638 15.8523 18.0371C18.8784 15.6312 20.5686 13.0021 20.5686 10.0146C20.5686 7.61887 19.0083 5.95407 17.0156 5.95407C15.9234 5.95407 14.7418 6.53269 13.883 7.38945L12.4476 8.82483L11.0122 7.38945C10.1534 6.53269 8.97182 5.95407 7.87955 5.95407C5.91022 5.95407 4.32663 7.63511 4.32663 10.0146C4.32663 13.0031 6.01782 15.6312 9.04187 18.0371C9.79813 18.638 10.6052 19.1994 11.4995 19.7628C11.803 19.9546 12.1035 20.1384 12.4476 20.3434C12.7917 20.1384 13.0922 19.9546 13.3957 19.7638V19.7638Z" fill="#172B4D" fill-opacity="0.5"/>
</svg>
