<svg width="32" height="32" viewBox="0 0 32 32" fill="none" xmlns="http://www.w3.org/2000/svg">
<g clip-path="url(#clip0)">
<path d="M31.6047 14.7745L25.0811 3.47686C24.5528 2.56247 23.5784 2 22.5234 2H9.47681C8.4219 2 7.44768 2.56247 6.919 3.47686L0.395811 14.7745C-0.131612 15.6888 -0.131612 16.814 0.395811 17.7285L6.919 29.0271C7.44768 29.9415 8.4219 30.504 9.47681 30.504H22.5233C23.5784 30.504 24.5528 29.9415 25.0811 29.0271L31.6047 17.7285C32.1321 16.814 32.1321 15.6888 31.6047 14.7745Z" fill="#0052CC"/>
<path d="M21.4679 22.4532C22.314 22.4532 22.9999 21.7674 22.9999 20.9213C22.9999 20.0753 22.314 19.3894 21.4679 19.3894C20.6219 19.3894 19.936 20.0753 19.936 20.9213C19.936 21.7674 20.6219 22.4532 21.4679 22.4532Z" fill="white"/>
<path d="M11.2979 10.1489V21.6383C11.2986 21.7687 11.277 21.8982 11.234 22.0213C11.2232 22.0532 11.2111 22.0819 11.1977 22.1116C11.0901 22.352 10.9032 22.5482 10.6682 22.6672C10.4333 22.7863 10.1645 22.821 9.90704 22.7655C9.64955 22.7101 9.41894 22.5678 9.25381 22.3626C9.08869 22.1574 8.99908 21.9017 9.00001 21.6383V10.1489C9.00001 9.84422 9.12106 9.55198 9.33652 9.33652C9.55199 9.12105 9.84423 9 10.1489 9C10.4537 9 10.7459 9.12105 10.9614 9.33652C11.1768 9.55198 11.2979 9.84422 11.2979 10.1489Z" fill="white"/>
<path d="M18.1915 18.1914V21.6383C18.1916 21.901 18.1016 22.1559 17.9366 22.3603C17.7716 22.5648 17.5415 22.7065 17.2846 22.7619C17.0278 22.8172 16.7597 22.7829 16.5251 22.6645C16.2905 22.5462 16.1036 22.351 15.9954 22.1116C15.982 22.0819 15.9699 22.0519 15.9591 22.0212C15.9156 21.8982 15.8935 21.7687 15.8936 21.6383V18.1914C15.8936 17.582 15.6515 16.9975 15.2206 16.5666C14.7897 16.1357 14.2052 15.8936 13.5958 15.8936C12.9863 15.8936 12.4018 16.1357 11.9709 16.5666C11.54 16.9975 11.2979 17.582 11.2979 18.1914V21.6383C11.2981 21.7687 11.2759 21.8982 11.2325 22.0212C11.2216 22.0531 11.2095 22.0819 11.1961 22.1116C11.0879 22.351 10.901 22.5462 10.6664 22.6645C10.4318 22.7829 10.1637 22.8172 9.90688 22.7619C9.65003 22.7065 9.41991 22.5648 9.25489 22.3603C9.08986 22.1559 8.9999 21.901 9.00001 21.6383V18.1914C8.99839 17.3846 9.21059 16.5917 9.61501 15.8936C9.66288 15.8108 9.7132 15.7297 9.76597 15.6504C9.88804 15.4666 10.0233 15.2919 10.1706 15.1276C10.2839 15.0003 10.4046 14.8796 10.5319 14.7663C10.6962 14.619 10.8709 14.4837 11.0547 14.3617C11.1341 14.3089 11.2151 14.2586 11.2979 14.2107C11.9963 13.8066 12.7889 13.5938 13.5958 13.5938C14.4026 13.5938 15.1953 13.8066 15.8936 14.2107C15.9764 14.2586 16.0575 14.3089 16.1368 14.3617C16.3206 14.4837 16.4953 14.619 16.6596 14.7663C16.7869 14.8796 16.9076 15.0003 17.0209 15.1276C17.1681 15.292 17.3033 15.4667 17.4255 15.6504C17.4783 15.7297 17.5286 15.8108 17.5765 15.8936C17.7176 16.1375 17.836 16.3939 17.9301 16.6595C17.9579 16.7387 17.9837 16.8191 18.0077 16.9002C18.13 17.3197 18.1919 17.7545 18.1915 18.1914Z" fill="white" fill-opacity="0.7"/>
</g>
<defs>
<clipPath id="clip0">
<rect width="32" height="32" fill="white"/>
</clipPath>
</defs>
</svg>
