<svg width="23" height="22" viewBox="0 0 23 22" fill="none" xmlns="http://www.w3.org/2000/svg">
<path d="M4.33366 2.75H19.0003C19.2434 2.75 19.4766 2.84658 19.6485 3.01849C19.8204 3.19039 19.917 3.42355 19.917 3.66667V18.3333C19.917 18.5764 19.8204 18.8096 19.6485 18.9815C19.4766 19.1534 19.2434 19.25 19.0003 19.25H4.33366C4.09054 19.25 3.85739 19.1534 3.68548 18.9815C3.51357 18.8096 3.41699 18.5764 3.41699 18.3333V3.66667C3.41699 3.42355 3.51357 3.19039 3.68548 3.01849C3.85739 2.84658 4.09054 2.75 4.33366 2.75V2.75ZM5.25033 4.58333V17.4167H18.0837V4.58333H5.25033ZM7.54199 8.25C7.17732 8.25 6.82758 8.10513 6.56972 7.84727C6.31186 7.58941 6.16699 7.23967 6.16699 6.875C6.16699 6.51033 6.31186 6.16059 6.56972 5.90273C6.82758 5.64487 7.17732 5.5 7.54199 5.5C7.90666 5.5 8.2564 5.64487 8.51426 5.90273C8.77213 6.16059 8.91699 6.51033 8.91699 6.875C8.91699 7.23967 8.77213 7.58941 8.51426 7.84727C8.2564 8.10513 7.90666 8.25 7.54199 8.25V8.25ZM6.62533 9.16667H8.45866V16.0417H6.62533V9.16667ZM11.667 9.56083C12.2023 9.04292 12.8275 8.70833 13.5003 8.70833C15.3987 8.70833 16.7087 10.2474 16.7087 12.1458V16.0417H14.8753V12.1458C14.8753 11.7204 14.7063 11.3124 14.4055 11.0115C14.1046 10.7107 13.6966 10.5417 13.2712 10.5417C12.8457 10.5417 12.4377 10.7107 12.1368 11.0115C11.836 11.3124 11.667 11.7204 11.667 12.1458V16.0417H9.83366V9.16667H11.667V9.56083Z" fill="#172B4D"/>
</svg>
