<svg width="28" height="28" viewBox="0 0 28 28" fill="none" xmlns="http://www.w3.org/2000/svg">
<path d="M4.66667 3.5H23.3333C23.6428 3.5 23.9395 3.62292 24.1583 3.84171C24.3771 4.0605 24.5 4.35725 24.5 4.66667V23.3333C24.5 23.6428 24.3771 23.9395 24.1583 24.1583C23.9395 24.3771 23.6428 24.5 23.3333 24.5H4.66667C4.35725 24.5 4.0605 24.3771 3.84171 24.1583C3.62292 23.9395 3.5 23.6428 3.5 23.3333V4.66667C3.5 4.35725 3.62292 4.0605 3.84171 3.84171C4.0605 3.62292 4.35725 3.5 4.66667 3.5ZM5.83333 5.83333V22.1667H22.1667V5.83333H5.83333ZM8.75 10.5C8.28587 10.5 7.84075 10.3156 7.51256 9.98744C7.18437 9.65925 7 9.21413 7 8.75C7 8.28587 7.18437 7.84075 7.51256 7.51256C7.84075 7.18437 8.28587 7 8.75 7C9.21413 7 9.65925 7.18437 9.98744 7.51256C10.3156 7.84075 10.5 8.28587 10.5 8.75C10.5 9.21413 10.3156 9.65925 9.98744 9.98744C9.65925 10.3156 9.21413 10.5 8.75 10.5ZM7.58333 11.6667H9.91667V20.4167H7.58333V11.6667ZM14 12.1683C14.6813 11.5092 15.477 11.0833 16.3333 11.0833C18.7495 11.0833 20.4167 13.0422 20.4167 15.4583V20.4167H18.0833V15.4583C18.0833 14.9168 17.8682 14.3975 17.4853 14.0147C17.1025 13.6318 16.5831 13.4167 16.0417 13.4167C15.5002 13.4167 14.9809 13.6318 14.598 14.0147C14.2151 14.3975 14 14.9168 14 15.4583V20.4167H11.6667V11.6667H14V12.1683Z" fill="#0052CC"/>
</svg>
