<svg width="22" height="22" viewBox="0 0 22 22" fill="none" xmlns="http://www.w3.org/2000/svg">
<path d="M11.0002 8.24967C10.2708 8.24967 9.57134 8.53941 9.05562 9.05513C8.53989 9.57086 8.25016 10.2703 8.25016 10.9997C8.25016 11.729 8.53989 12.4285 9.05562 12.9442C9.57134 13.4599 10.2708 13.7497 11.0002 13.7497C11.7295 13.7497 12.429 13.4599 12.9447 12.9442C13.4604 12.4285 13.7502 11.729 13.7502 10.9997C13.7502 10.2703 13.4604 9.57086 12.9447 9.05513C12.429 8.53941 11.7295 8.24967 11.0002 8.24967ZM11.0002 6.41634C12.2157 6.41634 13.3815 6.89923 14.2411 7.75877C15.1006 8.61831 15.5835 9.7841 15.5835 10.9997C15.5835 12.2153 15.1006 13.381 14.2411 14.2406C13.3815 15.1001 12.2157 15.583 11.0002 15.583C9.78459 15.583 8.6188 15.1001 7.75926 14.2406C6.89972 13.381 6.41683 12.2153 6.41683 10.9997C6.41683 9.7841 6.89972 8.61831 7.75926 7.75877C8.6188 6.89923 9.78459 6.41634 11.0002 6.41634V6.41634ZM16.9585 6.18717C16.9585 6.49107 16.8378 6.78252 16.6229 6.9974C16.408 7.21229 16.1166 7.33301 15.8127 7.33301C15.5088 7.33301 15.2173 7.21229 15.0024 6.9974C14.7876 6.78252 14.6668 6.49107 14.6668 6.18717C14.6668 5.88328 14.7876 5.59183 15.0024 5.37695C15.2173 5.16206 15.5088 5.04134 15.8127 5.04134C16.1166 5.04134 16.408 5.16206 16.6229 5.37695C16.8378 5.59183 16.9585 5.88328 16.9585 6.18717V6.18717ZM11.0002 3.66634C8.73233 3.66634 8.362 3.67276 7.30691 3.71951C6.58825 3.75342 6.10608 3.84967 5.65875 4.02384C5.26091 4.17784 4.974 4.36209 4.66875 4.66826C4.38184 4.94546 4.16124 5.28388 4.02341 5.65826C3.84925 6.10742 3.753 6.58867 3.72 7.30642C3.67233 8.31842 3.66683 8.67226 3.66683 10.9997C3.66683 13.2675 3.67325 13.6378 3.72 14.6929C3.75391 15.4107 3.85016 15.8938 4.02341 16.3402C4.17925 16.7389 4.36258 17.0258 4.66691 17.3302C4.97583 17.6382 5.26275 17.8224 5.65691 17.9746C6.10975 18.1497 6.59191 18.2468 7.30691 18.2798C8.31891 18.3275 8.67275 18.333 11.0002 18.333C13.268 18.333 13.6383 18.3266 14.6934 18.2798C15.4102 18.2459 15.8933 18.1497 16.3407 17.9764C16.7376 17.8215 17.0263 17.6373 17.3307 17.3329C17.6396 17.024 17.8238 16.7371 17.976 16.3429C18.1502 15.891 18.2473 15.4079 18.2803 14.6929C18.328 13.6809 18.3335 13.3271 18.3335 10.9997C18.3335 8.73184 18.3271 8.36151 18.2803 7.30642C18.2464 6.58959 18.1502 6.10559 17.976 5.65826C17.8378 5.28426 17.6176 4.94597 17.3316 4.66826C17.0545 4.3812 16.716 4.16058 16.3416 4.02292C15.8924 3.84876 15.4102 3.75251 14.6934 3.71951C13.6814 3.67184 13.3276 3.66634 11.0002 3.66634ZM11.0002 1.83301C13.4907 1.83301 13.8015 1.84217 14.7787 1.88801C15.7549 1.93384 16.4195 2.08692 17.0043 2.31426C17.6093 2.54709 18.119 2.86242 18.6287 3.37117C19.0948 3.82941 19.4555 4.38371 19.6856 4.99551C19.912 5.57942 20.066 6.24492 20.1118 7.22117C20.1549 8.19834 20.1668 8.50909 20.1668 10.9997C20.1668 13.4903 20.1577 13.801 20.1118 14.7782C20.066 15.7544 19.912 16.419 19.6856 17.0038C19.4561 17.616 19.0954 18.1704 18.6287 18.6282C18.1703 19.0941 17.616 19.4548 17.0043 19.6851C16.4204 19.9115 15.7549 20.0655 14.7787 20.1113C13.8015 20.1544 13.4907 20.1663 11.0002 20.1663C8.50958 20.1663 8.19883 20.1572 7.22166 20.1113C6.24541 20.0655 5.58083 19.9115 4.996 19.6851C4.38396 19.4554 3.82956 19.0947 3.37166 18.6282C2.90545 18.17 2.54477 17.6157 2.31475 17.0038C2.08741 16.4199 1.93433 15.7544 1.8885 14.7782C1.84541 13.801 1.8335 13.4903 1.8335 10.9997C1.8335 8.50909 1.84266 8.19834 1.8885 7.22117C1.93433 6.24401 2.08741 5.58034 2.31475 4.99551C2.54413 4.38334 2.9049 3.82889 3.37166 3.37117C3.82969 2.9048 4.38406 2.54409 4.996 2.31426C5.58083 2.08692 6.2445 1.93384 7.22166 1.88801C8.19883 1.84492 8.50958 1.83301 11.0002 1.83301Z" fill="#172B4D"/>
</svg>
