<svg width="25" height="25" viewBox="0 0 25 25" fill="none" xmlns="http://www.w3.org/2000/svg">
<g clip-path="url(#clip0)">
<path d="M17.6085 16.051C18.5631 15.0424 19.2013 13.7761 19.444 12.4088C19.6868 11.0414 19.5236 9.63284 18.9745 8.35722C18.4255 7.0816 17.5147 5.99483 16.3547 5.23123C15.1947 4.46764 13.8364 4.06069 12.4476 4.06069C11.0589 4.06069 9.70053 4.46764 8.54054 5.23123C7.38055 5.99483 6.46974 7.0816 5.92069 8.35722C5.37164 9.63284 5.20841 11.0414 5.45119 12.4088C5.69398 13.7761 6.33212 15.0424 7.28674 16.051C7.83457 15.1769 8.5956 14.4563 9.49835 13.957C10.4011 13.4576 11.416 13.196 12.4476 13.1965C13.4793 13.196 14.4941 13.4576 15.3969 13.957C16.2996 14.4563 17.0607 15.1769 17.6085 16.051V16.051ZM8.77795 17.5463L12.4476 21.215L16.1173 17.5463C15.7882 16.8515 15.2686 16.2644 14.619 15.8533C13.9694 15.4422 13.2164 15.224 12.4476 15.224C11.6788 15.224 10.9258 15.4422 10.2762 15.8533C9.6266 16.2644 9.10704 16.8515 8.77795 17.5463V17.5463ZM12.4476 24.0867L5.98739 17.6265C4.70969 16.3488 3.83958 14.7209 3.48707 12.9487C3.13456 11.1765 3.31549 9.3395 4.00698 7.67011C4.69847 6.00071 5.86947 4.57386 7.37189 3.56997C8.87431 2.56609 10.6407 2.03027 12.4476 2.03027C14.2546 2.03027 16.0209 2.56609 17.5233 3.56997C19.0258 4.57386 20.1968 6.00071 20.8883 7.67011C21.5797 9.3395 21.7607 11.1765 21.4082 12.9487C21.0557 14.7209 20.1855 16.3488 18.9078 17.6265L12.4476 24.0867ZM12.4476 10.1512C12.7168 10.1512 12.975 10.0442 13.1654 9.85384C13.3558 9.66347 13.4627 9.40527 13.4627 9.13604C13.4627 8.86681 13.3558 8.60861 13.1654 8.41824C12.975 8.22787 12.7168 8.12092 12.4476 8.12092C12.1784 8.12092 11.9202 8.22787 11.7298 8.41824C11.5394 8.60861 11.4325 8.86681 11.4325 9.13604C11.4325 9.40527 11.5394 9.66347 11.7298 9.85384C11.9202 10.0442 12.1784 10.1512 12.4476 10.1512V10.1512ZM12.4476 12.1814C11.6399 12.1814 10.8653 11.8606 10.2942 11.2894C9.7231 10.7183 9.40225 9.94372 9.40225 9.13604C9.40225 8.32836 9.7231 7.55376 10.2942 6.98264C10.8653 6.41153 11.6399 6.09068 12.4476 6.09068C13.2553 6.09068 14.0299 6.41153 14.601 6.98264C15.1721 7.55376 15.493 8.32836 15.493 9.13604C15.493 9.94372 15.1721 10.7183 14.601 11.2894C14.0299 11.8606 13.2553 12.1814 12.4476 12.1814Z" fill="#172B4D" fill-opacity="0.5"/>
</g>
<defs>
<clipPath id="clip0">
<rect width="24.3629" height="24.3629" fill="white" transform="translate(0.266113)"/>
</clipPath>
</defs>
</svg>
