<svg width="20" height="20" viewBox="0 0 20 20" fill="none" xmlns="http://www.w3.org/2000/svg">
<path d="M6.04426 15.4115L6.64759 15.764C7.66504 16.3574 8.82225 16.6689 10.0001 16.6665C11.3186 16.6665 12.6076 16.2755 13.7039 15.543C14.8002 14.8104 15.6547 13.7692 16.1593 12.5511C16.6639 11.3329 16.7959 9.99244 16.5387 8.69923C16.2814 7.40603 15.6465 6.21814 14.7141 5.28579C13.7818 4.35344 12.5939 3.7185 11.3007 3.46127C10.0075 3.20403 8.66704 3.33606 7.44887 3.84064C6.2307 4.34522 5.1895 5.19971 4.45696 6.29604C3.72442 7.39236 3.33343 8.68129 3.33343 9.99984C3.33343 11.1965 3.64759 12.344 4.23676 13.3532L4.58843 13.9565L4.04426 15.9573L6.04426 15.4115ZM1.67009 18.3332L2.79676 14.1932C2.05437 12.9205 1.66434 11.4732 1.66676 9.99984C1.66676 5.39734 5.39759 1.6665 10.0001 1.6665C14.6026 1.6665 18.3334 5.39734 18.3334 9.99984C18.3334 14.6023 14.6026 18.3332 10.0001 18.3332C8.52741 18.3355 7.08064 17.9458 5.80843 17.204L1.67009 18.3332ZM6.99259 6.08984C7.10426 6.0815 7.21676 6.0815 7.32843 6.0865C7.37343 6.08984 7.41843 6.09484 7.46343 6.09984C7.59593 6.11484 7.74176 6.19567 7.79093 6.30734C8.03926 6.87067 8.28093 7.43817 8.51426 8.00734C8.56593 8.134 8.53509 8.2965 8.43676 8.45484C8.36913 8.5619 8.29598 8.66538 8.21759 8.76484C8.12343 8.88567 7.92093 9.10734 7.92093 9.10734C7.92093 9.10734 7.83843 9.20567 7.87009 9.32817C7.88176 9.37484 7.92009 9.44234 7.95509 9.499L8.00426 9.57817C8.21759 9.934 8.50426 10.2948 8.85426 10.6348C8.95426 10.7315 9.05176 10.8307 9.15676 10.9232C9.54676 11.2673 9.98843 11.5482 10.4651 11.7565L10.4693 11.7582C10.5401 11.789 10.5759 11.8057 10.6793 11.8498C10.7309 11.8715 10.7843 11.8907 10.8384 11.9048C10.8944 11.9191 10.9533 11.9164 11.0078 11.8971C11.0622 11.8778 11.1097 11.8428 11.1443 11.7965C11.7476 11.0657 11.8026 11.0182 11.8076 11.0182V11.0198C11.8495 10.9807 11.8993 10.9511 11.9536 10.9328C12.008 10.9146 12.0656 10.9081 12.1226 10.914C12.1726 10.9173 12.2234 10.9265 12.2701 10.9473C12.7126 11.1498 13.4368 11.4657 13.4368 11.4657L13.9218 11.6832C14.0034 11.7223 14.0776 11.8148 14.0801 11.904C14.0834 11.9598 14.0884 12.0498 14.0693 12.2148C14.0426 12.4307 13.9776 12.6898 13.9126 12.8257C13.8681 12.9184 13.809 13.0033 13.7376 13.0773C13.6535 13.1656 13.5614 13.246 13.4626 13.3173C13.4284 13.3431 13.3937 13.3681 13.3584 13.3923C13.2548 13.4581 13.1483 13.5193 13.0393 13.5757C12.8247 13.6896 12.5877 13.7551 12.3451 13.7673C12.1909 13.7757 12.0368 13.7873 11.8818 13.779C11.8751 13.779 11.4084 13.7065 11.4084 13.7065C10.2236 13.3949 9.12792 12.8111 8.20843 12.0015C8.02009 11.8357 7.84593 11.6573 7.66759 11.4798C6.92593 10.7423 6.36593 9.9465 6.02593 9.19484C5.8519 8.82591 5.7579 8.42434 5.75009 8.0165C5.74666 7.51055 5.91205 7.01789 6.22009 6.6165C6.28093 6.53817 6.33843 6.4565 6.43759 6.36234C6.54343 6.26234 6.61009 6.209 6.68259 6.17234C6.77899 6.12403 6.88414 6.09569 6.99176 6.089L6.99259 6.08984Z" fill="#172B4D" fill-opacity="0.5"/>
</svg>
