<svg width="20" height="20" viewBox="0 0 20 20" fill="none" xmlns="http://www.w3.org/2000/svg">
<path d="M10.8334 16.6148C12.5145 16.4009 14.051 15.5549 15.1308 14.2488C16.2105 12.9427 16.7523 11.2744 16.6462 9.58315C16.5401 7.89185 15.794 6.30441 14.5595 5.14349C13.3249 3.98256 11.6947 3.33527 10.0001 3.33317C8.30338 3.33191 6.67004 3.97762 5.43286 5.13874C4.19569 6.29985 3.44778 7.889 3.34153 9.58237C3.23529 11.2757 3.7787 12.9459 4.86103 14.2526C5.94337 15.5592 7.4832 16.404 9.16675 16.6148V11.6665H7.50008V9.99984H9.16675V8.6215C9.16675 7.50734 9.28341 7.10317 9.50008 6.69567C9.71351 6.29249 10.0434 5.96291 10.4467 5.74984C10.7651 5.579 11.1609 5.4765 11.8526 5.43234C12.1267 5.41484 12.4817 5.4365 12.9176 5.499V7.08234H12.5001C11.7359 7.08234 11.4201 7.11817 11.2317 7.219C11.1194 7.2768 11.0279 7.36829 10.9701 7.48067C10.8701 7.669 10.8334 7.85567 10.8334 8.62067V9.99984H12.9167L12.5001 11.6665H10.8334V16.6148ZM10.0001 18.3332C5.39758 18.3332 1.66675 14.6023 1.66675 9.99984C1.66675 5.39734 5.39758 1.6665 10.0001 1.6665C14.6026 1.6665 18.3334 5.39734 18.3334 9.99984C18.3334 14.6023 14.6026 18.3332 10.0001 18.3332Z" fill="#172B4D" fill-opacity="0.5"/>
</svg>
