<svg width="28" height="28" viewBox="0 0 28 28" fill="none" xmlns="http://www.w3.org/2000/svg">
<path d="M17.8499 6.47497C16.9632 6.47482 16.1119 6.82278 15.4792 7.44397C14.8464 8.06515 14.4828 8.90991 14.4666 9.79647L14.4339 11.634C14.432 11.7326 14.4093 11.8298 14.3672 11.919C14.3251 12.0083 14.2646 12.0876 14.1897 12.1518C14.1148 12.2161 14.0271 12.2637 13.9325 12.2917C13.8379 12.3197 13.7384 12.3273 13.6406 12.3141L11.8194 12.0668C9.42311 11.7401 7.12711 10.6365 4.92444 8.8013C4.22678 12.663 5.58944 15.3381 8.87128 17.402L10.9094 18.683C11.0063 18.7438 11.0867 18.8275 11.1438 18.9266C11.2008 19.0258 11.2327 19.1374 11.2366 19.2517C11.2405 19.366 11.2163 19.4795 11.1662 19.5823C11.1161 19.6852 11.0416 19.7741 10.9491 19.8415L9.09178 21.1983C10.1966 21.2671 11.2454 21.2181 12.1158 21.0455C17.6201 19.9465 21.2799 15.8048 21.2799 8.9728C21.2799 8.41514 20.0993 6.47497 17.8499 6.47497ZM12.1333 9.7533C12.1536 8.6287 12.5053 7.53509 13.1443 6.6094C13.7832 5.68371 14.681 4.96708 15.7253 4.54923C16.7696 4.13139 17.914 4.0309 19.0151 4.26034C20.1163 4.48979 21.1253 5.03897 21.9158 5.83914C22.7453 5.8333 23.4511 6.0433 25.0296 5.08664C24.6388 6.99997 24.4463 7.83064 23.6133 8.9728C23.6133 17.8885 18.1334 22.2238 12.5731 23.3333C8.76044 24.094 3.21644 22.8445 1.62744 21.1855C2.43711 21.1225 5.72711 20.769 7.62878 19.3771C6.01994 18.3166 -0.383892 14.5483 3.82428 4.41697C5.79944 6.72347 7.80261 8.2938 9.83261 9.1268C11.1836 9.68097 11.5149 9.6693 12.1344 9.75447L12.1333 9.7533Z" fill="#0052CC"/>
</svg>
