<svg width="23" height="22" viewBox="0 0 23 22" fill="none" xmlns="http://www.w3.org/2000/svg">
<path d="M14.2467 5.08744C13.55 5.08733 12.8811 5.36072 12.384 5.84879C11.8868 6.33687 11.6011 7.00061 11.5884 7.69719L11.5627 9.14094C11.5612 9.21846 11.5434 9.29478 11.5103 9.3649C11.4772 9.43503 11.4297 9.49737 11.3708 9.54783C11.312 9.59829 11.2431 9.63574 11.1688 9.65772C11.0944 9.6797 11.0162 9.68571 10.9394 9.67536L9.50849 9.48102C7.62566 9.22436 5.82166 8.35719 4.09099 6.91527C3.54282 9.94944 4.61349 12.0514 7.19207 13.6729L8.79349 14.6794C8.86958 14.7273 8.93279 14.793 8.9776 14.8709C9.02241 14.9488 9.04744 15.0365 9.05052 15.1263C9.05359 15.2161 9.03461 15.3053 8.99524 15.3861C8.95587 15.4669 8.8973 15.5368 8.82466 15.5897L7.36532 16.6558C8.23341 16.7099 9.05749 16.6714 9.74132 16.5357C14.0662 15.6722 16.9417 12.418 16.9417 7.05002C16.9417 6.61186 16.0141 5.08744 14.2467 5.08744V5.08744ZM9.75507 7.66327C9.77107 6.77965 10.0474 5.92039 10.5494 5.19306C11.0514 4.46573 11.7569 3.90267 12.5774 3.57436C13.3979 3.24606 14.2971 3.1671 15.1623 3.34738C16.0274 3.52766 16.8202 3.95916 17.4413 4.58786C18.0931 4.58328 18.6477 4.74828 19.8879 3.99661C19.5808 5.49994 19.4296 6.15261 18.7751 7.05002C18.7751 14.0552 14.4695 17.4615 10.1007 18.3333C7.10499 18.9309 2.74899 17.9492 1.50049 16.6457C2.13665 16.5962 4.72166 16.3184 6.21582 15.2249C4.95174 14.3916 -0.0798451 11.4308 3.22657 3.47044C4.77849 5.28269 6.35241 6.51652 7.94741 7.17102C9.00891 7.60644 9.26924 7.59727 9.75599 7.66419L9.75507 7.66327Z" fill="#172B4D"/>
</svg>
