<svg width="90" height="30" viewBox="0 0 90 30" fill="none" xmlns="http://www.w3.org/2000/svg">
<path d="M1.2 6V24H3.6V16.2H11.4V24H13.8V6H11.4V13.8H3.6V6H1.2ZM25.8 22.8L27 24H28.2V12H25.8V13.2C24.72 12.408 23.52 12 22.2 12C20.544 12 19.128 12.576 17.952 13.752C16.776 14.928 16.2 16.344 16.2 18C16.2 19.656 16.776 21.072 17.952 22.248C19.128 23.424 20.544 24 22.2 24C23.544 24 24.744 23.592 25.8 22.8ZM19.656 20.544C18.96 19.848 18.6 18.984 18.6 18C18.6 17.016 18.96 16.152 19.656 15.456C20.352 14.76 21.216 14.4 22.2 14.4C23.184 14.4 24.048 14.76 24.744 15.456C25.44 16.152 25.8 17.016 25.8 18C25.8 18.984 25.44 19.848 24.744 20.544C24.048 21.24 23.184 21.6 22.2 21.6C21.216 21.6 20.352 21.24 19.656 20.544ZM32.9906 12V6H30.5906V18.888C30.5906 20.304 31.0946 21.528 32.0786 22.512C33.0626 23.496 34.2626 24 35.6786 24V21.6C34.9346 21.6 34.3106 21.336 33.7826 20.808C33.2546 20.28 32.9906 19.632 32.9906 18.888V14.4H35.3906V12H32.9906ZM44.0672 12C42.4112 12 40.9952 12.576 39.8192 13.752C38.6432 14.928 38.0672 16.344 38.0672 18C38.0672 19.656 38.6432 21.072 39.8192 22.248C40.9952 23.424 42.4112 24 44.0672 24C45.7232 24 47.1392 23.424 48.3152 22.248L46.6112 20.544C45.9152 21.24 45.0512 21.6 44.0672 21.6C43.0832 21.6 42.2192 21.24 41.5232 20.544C40.8272 19.848 40.4672 18.984 40.4672 18C40.4672 17.016 40.8272 16.152 41.5232 15.456C42.2192 14.76 43.0832 14.4 44.0672 14.4C45.0512 14.4 45.9152 14.76 46.6112 15.456L48.3152 13.752C47.1392 12.576 45.7232 12 44.0672 12ZM60.3234 18V24H62.7234V18C62.7234 16.344 62.1474 14.928 60.9714 13.752C59.7954 12.576 58.3794 12 56.7234 12C55.4034 12 54.2034 12.408 53.1234 13.2V6H50.7234V24H53.1234V17.856C53.1474 16.896 53.5314 16.08 54.2274 15.408C54.9234 14.736 55.7394 14.4 56.7234 14.4C57.7074 14.4 58.5714 14.76 59.2674 15.456C59.9634 16.152 60.3234 17.016 60.3234 18ZM65.1197 12V24H67.5197V12H65.1197ZM65.3117 6.432C65.0237 6.72 64.8797 7.056 64.8797 7.464C64.8797 7.872 65.0237 8.208 65.3117 8.472C65.5757 8.76 65.9117 8.904 66.3197 8.904C66.7277 8.904 67.0637 8.76 67.3517 8.472C67.6397 8.208 67.7837 7.872 67.7837 7.464C67.7837 7.056 67.6397 6.696 67.3517 6.432C67.0877 6.144 66.7277 6 66.3197 6C65.9117 6 65.5757 6.144 65.3117 6.432ZM71.6942 13.752C70.5182 14.928 69.9422 16.344 69.9422 18C69.9422 19.656 70.5182 21.072 71.6942 22.248C72.8702 23.424 74.2862 24 75.9422 24C77.5982 24 79.0142 23.424 80.1902 22.248C81.3662 21.072 81.9422 19.656 81.9422 18C81.9422 16.344 81.3662 14.928 80.1902 13.752C79.0142 12.576 77.5982 12 75.9422 12C74.2862 12 72.8702 12.576 71.6942 13.752ZM73.3982 20.544C72.7022 19.848 72.3422 18.984 72.3422 18C72.3422 17.016 72.7022 16.152 73.3982 15.456C74.0942 14.76 74.9582 14.4 75.9422 14.4C76.9262 14.4 77.7902 14.76 78.4862 15.456C79.1822 16.152 79.5422 17.016 79.5422 18C79.5422 18.984 79.1822 19.848 78.4862 20.544C77.7902 21.24 76.9262 21.6 75.9422 21.6C74.9582 21.6 74.0942 21.24 73.3982 20.544Z" fill="white"/>
<path d="M1.2 6V5.5H0.7V6H1.2ZM1.2 24H0.7V24.5H1.2V24ZM3.6 24V24.5H4.1V24H3.6ZM3.6 16.2V15.7H3.1V16.2H3.6ZM11.4 16.2H11.9V15.7H11.4V16.2ZM11.4 24H10.9V24.5H11.4V24ZM13.8 24V24.5H14.3V24H13.8ZM13.8 6H14.3V5.5H13.8V6ZM11.4 6V5.5H10.9V6H11.4ZM11.4 13.8V14.3H11.9V13.8H11.4ZM3.6 13.8H3.1V14.3H3.6V13.8ZM3.6 6H4.1V5.5H3.6V6ZM0.7 6V24H1.7V6H0.7ZM1.2 24.5H3.6V23.5H1.2V24.5ZM4.1 24V16.2H3.1V24H4.1ZM3.6 16.7H11.4V15.7H3.6V16.7ZM10.9 16.2V24H11.9V16.2H10.9ZM11.4 24.5H13.8V23.5H11.4V24.5ZM14.3 24V6H13.3V24H14.3ZM13.8 5.5H11.4V6.5H13.8V5.5ZM10.9 6V13.8H11.9V6H10.9ZM11.4 13.3H3.6V14.3H11.4V13.3ZM4.1 13.8V6H3.1V13.8H4.1ZM3.6 5.5H1.2V6.5H3.6V5.5ZM25.8 22.8L26.1536 22.4464L25.8469 22.1398L25.5 22.4L25.8 22.8ZM27 24L26.6464 24.3536L26.7929 24.5H27V24ZM28.2 24V24.5H28.7V24H28.2ZM28.2 12H28.7V11.5H28.2V12ZM25.8 12V11.5H25.3V12H25.8ZM25.8 13.2L25.5043 13.6032L26.3 14.1867V13.2H25.8ZM17.952 22.248L18.3056 21.8944L17.952 22.248ZM19.656 20.544L20.0096 20.1904L19.656 20.544ZM19.656 15.456L20.0096 15.8096L19.656 15.456ZM24.744 15.456L24.3904 15.8096L24.744 15.456ZM24.744 20.544L24.3904 20.1904L24.744 20.544ZM25.4464 23.1536L26.6464 24.3536L27.3536 23.6464L26.1536 22.4464L25.4464 23.1536ZM27 24.5H28.2V23.5H27V24.5ZM28.7 24V12H27.7V24H28.7ZM28.2 11.5H25.8V12.5H28.2V11.5ZM25.3 12V13.2H26.3V12H25.3ZM26.0957 12.7968C24.9339 11.9448 23.6311 11.5 22.2 11.5V12.5C23.4089 12.5 24.5061 12.8712 25.5043 13.6032L26.0957 12.7968ZM22.2 11.5C20.4134 11.5 18.8696 12.1273 17.5984 13.3984L18.3056 14.1056C19.3864 13.0247 20.6746 12.5 22.2 12.5V11.5ZM17.5984 13.3984C16.3273 14.6696 15.7 16.2134 15.7 18H16.7C16.7 16.4746 17.2247 15.1864 18.3056 14.1056L17.5984 13.3984ZM15.7 18C15.7 19.7866 16.3273 21.3304 17.5984 22.6016L18.3056 21.8944C17.2247 20.8136 16.7 19.5254 16.7 18H15.7ZM17.5984 22.6016C18.8696 23.8727 20.4134 24.5 22.2 24.5V23.5C20.6746 23.5 19.3864 22.9753 18.3056 21.8944L17.5984 22.6016ZM22.2 24.5C23.6532 24.5 24.9583 24.0563 26.1 23.2L25.5 22.4C24.5297 23.1277 23.4348 23.5 22.2 23.5V24.5ZM20.0096 20.1904C19.4068 19.5877 19.1 18.8506 19.1 18H18.1C18.1 19.1174 18.5132 20.1083 19.3024 20.8976L20.0096 20.1904ZM19.1 18C19.1 17.1494 19.4068 16.4123 20.0096 15.8096L19.3024 15.1024C18.5132 15.8917 18.1 16.8826 18.1 18H19.1ZM20.0096 15.8096C20.6123 15.2068 21.3494 14.9 22.2 14.9V13.9C21.0826 13.9 20.0917 14.3132 19.3024 15.1024L20.0096 15.8096ZM22.2 14.9C23.0506 14.9 23.7877 15.2068 24.3904 15.8096L25.0976 15.1024C24.3083 14.3132 23.3174 13.9 22.2 13.9V14.9ZM24.3904 15.8096C24.9932 16.4123 25.3 17.1494 25.3 18H26.3C26.3 16.8826 25.8868 15.8917 25.0976 15.1024L24.3904 15.8096ZM25.3 18C25.3 18.8506 24.9932 19.5877 24.3904 20.1904L25.0976 20.8976C25.8868 20.1083 26.3 19.1174 26.3 18H25.3ZM24.3904 20.1904C23.7877 20.7932 23.0506 21.1 22.2 21.1V22.1C23.3174 22.1 24.3083 21.6868 25.0976 20.8976L24.3904 20.1904ZM22.2 21.1C21.3494 21.1 20.6123 20.7932 20.0096 20.1904L19.3024 20.8976C20.0917 21.6868 21.0826 22.1 22.2 22.1V21.1ZM32.9906 12H32.4906V12.5H32.9906V12ZM32.9906 6H33.4906V5.5H32.9906V6ZM30.5906 6V5.5H30.0906V6H30.5906ZM32.0786 22.512L31.7251 22.8656L32.0786 22.512ZM35.6786 24V24.5H36.1786V24H35.6786ZM35.6786 21.6H36.1786V21.1H35.6786V21.6ZM33.7826 20.808L33.4291 21.1616V21.1616L33.7826 20.808ZM32.9906 14.4V13.9H32.4906V14.4H32.9906ZM35.3906 14.4V14.9H35.8906V14.4H35.3906ZM35.3906 12H35.8906V11.5H35.3906V12ZM33.4906 12V6H32.4906V12H33.4906ZM32.9906 5.5H30.5906V6.5H32.9906V5.5ZM30.0906 6V18.888H31.0906V6H30.0906ZM30.0906 18.888C30.0906 20.4346 30.6459 21.7863 31.7251 22.8656L32.4322 22.1584C31.5434 21.2697 31.0906 20.1734 31.0906 18.888H30.0906ZM31.7251 22.8656C32.8025 23.943 34.1295 24.5 35.6786 24.5V23.5C34.3957 23.5 33.3228 23.049 32.4322 22.1584L31.7251 22.8656ZM36.1786 24V21.6H35.1786V24H36.1786ZM35.6786 21.1C35.0702 21.1 34.5725 20.8908 34.1362 20.4544L33.4291 21.1616C34.0487 21.7812 34.7991 22.1 35.6786 22.1V21.1ZM34.1362 20.4544C33.7033 20.0215 33.4906 19.5012 33.4906 18.888H32.4906C32.4906 19.7628 32.806 20.5385 33.4291 21.1616L34.1362 20.4544ZM33.4906 18.888V14.4H32.4906V18.888H33.4906ZM32.9906 14.9H35.3906V13.9H32.9906V14.9ZM35.8906 14.4V12H34.8906V14.4H35.8906ZM35.3906 11.5H32.9906V12.5H35.3906V11.5ZM39.8192 22.248L40.1727 21.8944L39.8192 22.248ZM48.3152 22.248L48.6687 22.6016L49.0223 22.248L48.6687 21.8944L48.3152 22.248ZM46.6112 20.544L46.9647 20.1904L46.6112 19.8369L46.2576 20.1904L46.6112 20.544ZM41.5232 20.544L41.8767 20.1904L41.5232 20.544ZM41.5232 15.456L41.8767 15.8096L41.5232 15.456ZM46.6112 15.456L46.2576 15.8096L46.6112 16.1631L46.9647 15.8096L46.6112 15.456ZM48.3152 13.752L48.6687 14.1056L49.0223 13.752L48.6687 13.3984L48.3152 13.752ZM44.0672 11.5C42.2806 11.5 40.7368 12.1273 39.4656 13.3984L40.1727 14.1056C41.2536 13.0247 42.5418 12.5 44.0672 12.5V11.5ZM39.4656 13.3984C38.1945 14.6696 37.5672 16.2134 37.5672 18H38.5672C38.5672 16.4746 39.0919 15.1864 40.1727 14.1056L39.4656 13.3984ZM37.5672 18C37.5672 19.7866 38.1945 21.3304 39.4656 22.6016L40.1727 21.8944C39.0919 20.8136 38.5672 19.5254 38.5672 18H37.5672ZM39.4656 22.6016C40.7368 23.8727 42.2806 24.5 44.0672 24.5V23.5C42.5418 23.5 41.2536 22.9753 40.1727 21.8944L39.4656 22.6016ZM44.0672 24.5C45.8538 24.5 47.3976 23.8727 48.6687 22.6016L47.9616 21.8944C46.8808 22.9753 45.5926 23.5 44.0672 23.5V24.5ZM48.6687 21.8944L46.9647 20.1904L46.2576 20.8976L47.9616 22.6016L48.6687 21.8944ZM46.2576 20.1904C45.6548 20.7932 44.9178 21.1 44.0672 21.1V22.1C45.1846 22.1 46.1755 21.6868 46.9647 20.8976L46.2576 20.1904ZM44.0672 21.1C43.2166 21.1 42.4795 20.7932 41.8767 20.1904L41.1696 20.8976C41.9588 21.6868 42.9498 22.1 44.0672 22.1V21.1ZM41.8767 20.1904C41.274 19.5877 40.9672 18.8506 40.9672 18H39.9672C39.9672 19.1174 40.3804 20.1083 41.1696 20.8976L41.8767 20.1904ZM40.9672 18C40.9672 17.1494 41.274 16.4123 41.8767 15.8096L41.1696 15.1024C40.3804 15.8917 39.9672 16.8826 39.9672 18H40.9672ZM41.8767 15.8096C42.4795 15.2068 43.2166 14.9 44.0672 14.9V13.9C42.9498 13.9 41.9588 14.3132 41.1696 15.1024L41.8767 15.8096ZM44.0672 14.9C44.9178 14.9 45.6548 15.2068 46.2576 15.8096L46.9647 15.1024C46.1755 14.3132 45.1846 13.9 44.0672 13.9V14.9ZM46.9647 15.8096L48.6687 14.1056L47.9616 13.3984L46.2576 15.1024L46.9647 15.8096ZM48.6687 13.3984C47.3976 12.1273 45.8538 11.5 44.0672 11.5V12.5C45.5926 12.5 46.8808 13.0247 47.9616 14.1056L48.6687 13.3984ZM60.3234 24H59.8234V24.5H60.3234V24ZM62.7234 24V24.5H63.2234V24H62.7234ZM53.1234 13.2H52.6234V14.1867L53.4191 13.6032L53.1234 13.2ZM53.1234 6H53.6234V5.5H53.1234V6ZM50.7234 6V5.5H50.2234V6H50.7234ZM50.7234 24H50.2234V24.5H50.7234V24ZM53.1234 24V24.5H53.6234V24H53.1234ZM53.1234 17.856L52.6234 17.8435V17.856H53.1234ZM59.2674 15.456L58.9139 15.8096L59.2674 15.456ZM59.8234 18V24H60.8234V18H59.8234ZM60.3234 24.5H62.7234V23.5H60.3234V24.5ZM63.2234 24V18H62.2234V24H63.2234ZM63.2234 18C63.2234 16.2134 62.5961 14.6696 61.325 13.3984L60.6179 14.1056C61.6987 15.1864 62.2234 16.4746 62.2234 18H63.2234ZM61.325 13.3984C60.0538 12.1273 58.5101 11.5 56.7234 11.5V12.5C58.2488 12.5 59.537 13.0247 60.6179 14.1056L61.325 13.3984ZM56.7234 11.5C55.2923 11.5 53.9896 11.9448 52.8278 12.7968L53.4191 13.6032C54.4173 12.8712 55.5146 12.5 56.7234 12.5V11.5ZM53.6234 13.2V6H52.6234V13.2H53.6234ZM53.1234 5.5H50.7234V6.5H53.1234V5.5ZM50.2234 6V24H51.2234V6H50.2234ZM50.7234 24.5H53.1234V23.5H50.7234V24.5ZM53.6234 24V17.856H52.6234V24H53.6234ZM53.6233 17.8685C53.6438 17.0495 53.966 16.3555 54.5747 15.7677L53.8801 15.0483C53.0969 15.8045 52.6511 16.7425 52.6236 17.8435L53.6233 17.8685ZM54.5747 15.7677C55.1783 15.1849 55.8701 14.9 56.7234 14.9V13.9C55.6087 13.9 54.6685 14.2871 53.8801 15.0483L54.5747 15.7677ZM56.7234 14.9C57.574 14.9 58.3111 15.2068 58.9139 15.8096L59.621 15.1024C58.8318 14.3132 57.8408 13.9 56.7234 13.9V14.9ZM58.9139 15.8096C59.5167 16.4123 59.8234 17.1494 59.8234 18H60.8234C60.8234 16.8826 60.4102 15.8917 59.621 15.1024L58.9139 15.8096ZM65.1197 12V11.5H64.6197V12H65.1197ZM65.1197 24H64.6197V24.5H65.1197V24ZM67.5197 24V24.5H68.0197V24H67.5197ZM67.5197 12H68.0197V11.5H67.5197V12ZM65.3117 6.432L65.6652 6.78555L65.6729 6.77787L65.6803 6.76986L65.3117 6.432ZM65.3117 8.472L65.6803 8.13414L65.6656 8.11811L65.6496 8.10342L65.3117 8.472ZM67.3517 8.472L67.0138 8.10342L67.0058 8.11076L66.9981 8.11845L67.3517 8.472ZM67.3517 6.432L66.9831 6.76986L66.9978 6.78589L67.0138 6.80058L67.3517 6.432ZM64.6197 12V24H65.6197V12H64.6197ZM65.1197 24.5H67.5197V23.5H65.1197V24.5ZM68.0197 24V12H67.0197V24H68.0197ZM67.5197 11.5H65.1197V12.5H67.5197V11.5ZM64.9581 6.07845C64.5794 6.45722 64.3797 6.91922 64.3797 7.464H65.3797C65.3797 7.19278 65.468 6.98278 65.6652 6.78555L64.9581 6.07845ZM64.3797 7.464C64.3797 8.00513 64.5774 8.47723 64.9738 8.84058L65.6496 8.10342C65.4699 7.93877 65.3797 7.73886 65.3797 7.464H64.3797ZM64.9431 8.80986C65.3065 9.20624 65.7785 9.404 66.3197 9.404V8.404C66.0448 8.404 65.8449 8.31376 65.6803 8.13414L64.9431 8.80986ZM66.3197 9.404C66.8645 9.404 67.3265 9.20433 67.7052 8.82555L66.9981 8.11845C66.8009 8.31567 66.5909 8.404 66.3197 8.404V9.404ZM67.6896 8.84058C68.0859 8.47723 68.2837 8.00513 68.2837 7.464H67.2837C67.2837 7.73886 67.1935 7.93877 67.0138 8.10342L67.6896 8.84058ZM68.2837 7.464C68.2837 6.93233 68.0924 6.43272 67.6896 6.06342L67.0138 6.80058C67.187 6.95928 67.2837 7.17967 67.2837 7.464H68.2837ZM67.7203 6.09414C67.351 5.69127 66.8514 5.5 66.3197 5.5V6.5C66.604 6.5 66.8244 6.59673 66.9831 6.76986L67.7203 6.09414ZM66.3197 5.5C65.7785 5.5 65.3065 5.69776 64.9431 6.09414L65.6803 6.76986C65.8449 6.59024 66.0448 6.5 66.3197 6.5V5.5ZM71.6942 22.248L72.0477 21.8944L71.6942 22.248ZM80.1902 22.248L79.8366 21.8944L80.1902 22.248ZM73.3982 20.544L73.7517 20.1904L73.3982 20.544ZM73.3982 15.456L73.7517 15.8096L73.3982 15.456ZM78.4862 15.456L78.1326 15.8096L78.4862 15.456ZM78.4862 20.544L78.1326 20.1904L78.4862 20.544ZM71.3406 13.3984C70.0695 14.6696 69.4422 16.2134 69.4422 18H70.4422C70.4422 16.4746 70.9669 15.1864 72.0477 14.1056L71.3406 13.3984ZM69.4422 18C69.4422 19.7866 70.0695 21.3304 71.3406 22.6016L72.0477 21.8944C70.9669 20.8136 70.4422 19.5254 70.4422 18H69.4422ZM71.3406 22.6016C72.6118 23.8727 74.1556 24.5 75.9422 24.5V23.5C74.4168 23.5 73.1286 22.9753 72.0477 21.8944L71.3406 22.6016ZM75.9422 24.5C77.7288 24.5 79.2726 23.8727 80.5437 22.6016L79.8366 21.8944C78.7558 22.9753 77.4676 23.5 75.9422 23.5V24.5ZM80.5437 22.6016C81.8149 21.3304 82.4422 19.7866 82.4422 18H81.4422C81.4422 19.5254 80.9175 20.8136 79.8366 21.8944L80.5437 22.6016ZM82.4422 18C82.4422 16.2134 81.8149 14.6696 80.5437 13.3984L79.8366 14.1056C80.9175 15.1864 81.4422 16.4746 81.4422 18H82.4422ZM80.5437 13.3984C79.2726 12.1273 77.7288 11.5 75.9422 11.5V12.5C77.4676 12.5 78.7558 13.0247 79.8366 14.1056L80.5437 13.3984ZM75.9422 11.5C74.1556 11.5 72.6118 12.1273 71.3406 13.3984L72.0477 14.1056C73.1286 13.0247 74.4168 12.5 75.9422 12.5V11.5ZM73.7517 20.1904C73.1489 19.5877 72.8422 18.8506 72.8422 18H71.8422C71.8422 19.1174 72.2554 20.1083 73.0446 20.8976L73.7517 20.1904ZM72.8422 18C72.8422 17.1494 73.1489 16.4123 73.7517 15.8096L73.0446 15.1024C72.2554 15.8917 71.8422 16.8826 71.8422 18H72.8422ZM73.7517 15.8096C74.3545 15.2068 75.0916 14.9 75.9422 14.9V13.9C74.8248 13.9 73.8338 14.3132 73.0446 15.1024L73.7517 15.8096ZM75.9422 14.9C76.7928 14.9 77.5298 15.2068 78.1326 15.8096L78.8397 15.1024C78.0505 14.3132 77.0596 13.9 75.9422 13.9V14.9ZM78.1326 15.8096C78.7354 16.4123 79.0422 17.1494 79.0422 18H80.0422C80.0422 16.8826 79.629 15.8917 78.8397 15.1024L78.1326 15.8096ZM79.0422 18C79.0422 18.8506 78.7354 19.5877 78.1326 20.1904L78.8397 20.8976C79.629 20.1083 80.0422 19.1174 80.0422 18H79.0422ZM78.1326 20.1904C77.5298 20.7932 76.7928 21.1 75.9422 21.1V22.1C77.0596 22.1 78.0505 21.6868 78.8397 20.8976L78.1326 20.1904ZM75.9422 21.1C75.0916 21.1 74.3545 20.7932 73.7517 20.1904L73.0446 20.8976C73.8338 21.6868 74.8248 22.1 75.9422 22.1V21.1Z" fill="white"/>
<rect x="85" y="19" width="5" height="5" rx="2.5" fill="#0052CC" fill-opacity="0.3"/>
<rect x="85" y="12" width="5" height="5" rx="2.5" fill="#0052CC"/>
</svg>
