<svg width="28" height="28" viewBox="0 0 28 28" fill="none" xmlns="http://www.w3.org/2000/svg">
<path d="M22.8738 8.16079C22.7852 7.81313 22.5332 7.55063 22.245 7.47013C21.7352 7.32663 19.2502 6.99996 14.0002 6.99996C8.75016 6.99996 6.2675 7.32663 5.753 7.47013C5.46833 7.54946 5.21633 7.81196 5.1265 8.16079C4.99933 8.65546 4.66683 10.7286 4.66683 14C4.66683 17.2713 4.99933 19.3433 5.1265 19.8403C5.21516 20.1868 5.46716 20.4493 5.75416 20.5286C6.2675 20.6733 8.75016 21 14.0002 21C19.2502 21 21.734 20.6733 22.2473 20.5298C22.532 20.4505 22.784 20.188 22.8738 19.8391C23.001 19.3445 23.3335 17.2666 23.3335 14C23.3335 10.7333 23.001 8.65663 22.8738 8.16079ZM25.1337 7.58096C25.6668 9.65996 25.6668 14 25.6668 14C25.6668 14 25.6668 18.34 25.1337 20.419C24.8373 21.5681 23.9705 22.4723 22.8727 22.778C20.8788 23.3333 14.0002 23.3333 14.0002 23.3333C14.0002 23.3333 7.125 23.3333 5.12766 22.778C4.02516 22.4676 3.1595 21.5646 2.86666 20.419C2.3335 18.34 2.3335 14 2.3335 14C2.3335 14 2.3335 9.65996 2.86666 7.58096C3.163 6.43179 4.02983 5.52763 5.12766 5.22196C7.125 4.66663 14.0002 4.66663 14.0002 4.66663C14.0002 4.66663 20.8788 4.66663 22.8727 5.22196C23.9752 5.53229 24.8408 6.43529 25.1337 7.58096ZM11.6668 18.0833V9.91663L18.6668 14L11.6668 18.0833Z" fill="#0052CC"/>
</svg>
